<svg xmlns="http://www.w3.org/2000/svg"><defs><font id="jerry-mini" horiz-adv-x="512"><font-face font-family="jerry-mini" units-per-em="256" ascent="256" descent="0"/><glyph glyph-name="tail-right" unicode="" horiz-adv-x="256" d="M148.8 235.2l-22.4-22.4 68.8-68.8H0v-32h195.2l-68.8-68.8 22.4-22.4L256 128z"/><glyph glyph-name="tail-left" unicode="" horiz-adv-x="256" d="M107.2 20.8l22.4 22.4L60.8 112H256v32H60.8l68.8 68.8-22.4 22.4L0 128z"/><glyph glyph-name="tail-down" unicode="" horiz-adv-x="256" d="M235.2 107.2l-22.4 22.4L144 60.8V256h-32V60.8l-68.8 68.8-22.4-22.4L128 0z"/><glyph glyph-name="tail-up" unicode="" horiz-adv-x="256" d="M20.8 148.8l22.4-22.4 68.8 68.8V0h32v195.2l68.8-68.8 22.4 22.4L128 256z"/><glyph glyph-name="stre-down" unicode="" horiz-adv-x="256" d="M128 64c-3.712 0-7.408 1.28-10.416 3.856L-6.56 174.256l20.832 24.304L128 101.072l113.728 97.488 20.832-24.304-124.144-106.4A15.953 15.953 0 0 0 128 64z"/><glyph glyph-name="stre-left" unicode="" horiz-adv-x="256" d="M174.272-6.56L67.856 117.6c-5.136 5.984-5.136 14.832 0 20.816l106.416 124.16 24.304-20.832L101.072 128 198.56 14.272 174.272-6.56z"/><glyph glyph-name="stre-right" unicode="" horiz-adv-x="256" d="M81.728-6.56L57.44 14.272 154.928 128 57.44 241.728l24.288 20.832L188.144 138.4c5.136-5.984 5.136-14.832 0-20.816L81.728-6.56z"/><glyph glyph-name="stre-up" unicode="" horiz-adv-x="256" d="M241.728 57.44L128 154.928 14.272 57.44-6.56 81.744l124.144 106.4a15.971 15.971 0 0 0 20.832 0l124.144-106.4-20.832-24.304z"/><glyph glyph-name="square-upload" unicode="" horiz-adv-x="256" d="M112 201.6V64h32v137.6l64-64 22.4 22.4-91.2 91.2c-6.4 6.4-16 6.4-22.4 0L25.6 160 48 137.6l64 64zM224 32H32v48H0V16C0 6.4 6.4 0 16 0h224c9.6 0 16 6.4 16 16v64h-32V32z"/><glyph glyph-name="small-up" unicode="" horiz-adv-x="256" d="M192 73.6l-64 64-64-64L41.6 96l86.4 86.4L214.4 96z"/><glyph glyph-name="small-triangle-up" unicode="" horiz-adv-x="256" d="M208 80l-80 96-80-96z"/><glyph glyph-name="small-triangle-right" unicode="" horiz-adv-x="256" d="M80 48l96 80-96 80z"/><glyph glyph-name="small-triangle-left" unicode="" horiz-adv-x="256" d="M176 208l-96-80 96-80z"/><glyph glyph-name="small-triangle-down" unicode="" horiz-adv-x="256" d="M48 176l80-96 80 96z"/><glyph glyph-name="small-right" unicode="" horiz-adv-x="256" d="M96 41.6L73.6 64l64 64-64 64L96 214.4l86.4-86.4z"/><glyph glyph-name="small-left" unicode="" horiz-adv-x="256" d="M160 41.6L73.6 128l86.4 86.4 22.4-22.4-64-64 64-64z"/><glyph glyph-name="small-down" unicode="" horiz-adv-x="256" d="M128 73.6L41.6 160 64 182.4l64-64 64 64 22.4-22.4z"/><glyph glyph-name="zoom-split" unicode="" horiz-adv-x="256" d="M112 32C50.24 32 0 82.24 0 144s50.24 112 112 112 112-50.24 112-112S173.76 32 112 32zm0 192c-44.112 0-80-35.888-80-80s35.888-80 80-80 80 35.888 80 80-35.888 80-80 80zM251.312 27.312L213.024 65.6A128.3 128.3 0 0 0 190.4 42.976l38.288-38.288C231.808 1.568 235.904 0 240 0s8.192 1.568 11.312 4.688c6.256 6.256 6.256 16.368 0 22.624z"/><glyph glyph-name="phone-call" unicode="" horiz-adv-x="256" d="M244.56 59.12l-41.248 41.504c-6.24 6.288-16.4 6.288-22.656.032L144 64l-80 80 36.704 36.704c6.24 6.24 6.256 16.368.016 22.624l-41.28 41.344c-6.256 6.256-16.384 6.256-22.64 0L.064 207.952 0 208C0 93.12 93.12 0 208 0l36.528 36.528c6.24 6.24 6.256 16.336.032 22.592zM256 128h-32c0 52.944-43.056 96-96 96v32c70.576 0 128-57.424 128-128zm-64 0h-32c0 17.648-14.352 32-32 32v32c35.296 0 64-28.704 64-64z"/><glyph glyph-name="alert-circle-i" unicode="" horiz-adv-x="256" d="M128 256C57.6 256 0 198.4 0 128S57.6 0 128 0s128 57.6 128 128-57.6 128-128 128zm16-192h-32v80h32V64zm-16 96c-9.6 0-16 6.4-16 16s6.4 16 16 16 16-6.4 16-16-6.4-16-16-16z"/><glyph glyph-name="pen-01" unicode="" horiz-adv-x="256" d="M129.6 200L4.8 75.2C1.6 72 0 68.8 0 64V16C0 6.4 6.4 0 16 0h48c4.8 0 8 1.6 11.2 4.8L200 129.6 129.6 200zm121.6 3.2l-48 48c-6.4 6.4-16 6.4-22.4 0L152 222.4l70.4-70.4 28.8 28.8c6.4 6.4 6.4 16 0 22.4z"/><glyph glyph-name="logo-fb-simple" unicode="" horiz-adv-x="256" d="M96.367 0L96 112H48v48h48v32c0 43.187 26.744 64 65.27 64 18.454 0 34.315-1.374 38.937-1.988v-45.133l-26.72-.012c-20.952 0-25.01-9.957-25.01-24.567V160H208l-16-48h-43.522V0H96.367z"/><glyph glyph-name="logo-google-plus" unicode="" horiz-adv-x="256" d="M128 144v-38.4h65.6c-3.2-16-19.2-48-64-48-38.4 0-68.8 32-68.8 70.4s32 70.4 68.8 70.4c22.4 0 36.8-9.6 44.8-17.6l30.4 28.8C185.6 228.8 160 240 129.6 240c-62.4 0-112-49.6-112-112s49.6-112 112-112c64 0 107.2 44.8 107.2 108.8 0 8 0 12.8-1.6 19.2H128z"/><glyph glyph-name="logo-twitter" unicode="" horiz-adv-x="256" d="M256 208c-9.6-4.8-19.2-6.4-30.4-8 11.2 6.4 19.2 16 22.4 28.8-9.6-6.4-20.8-9.6-33.6-12.8-9.6 9.6-24 16-38.4 16-27.2 0-51.2-24-51.2-52.8 0-4.8 0-8 1.6-11.2-43.2 1.6-83.2 22.4-108.8 54.4-4.8-8-6.4-16-6.4-27.2 0-17.6 9.6-33.6 24-43.2-8 0-16 3.2-24 6.4 0-25.6 17.6-46.4 41.6-51.2-4.8-1.6-9.6-1.6-14.4-1.6-3.2 0-6.4 0-9.6 1.6 6.4-20.8 25.6-36.8 49.6-36.8C60.8 56 38.4 48 12.8 48H0c24-14.4 51.2-24 80-24 96 0 148.8 80 148.8 148.8v6.4c11.2 8 20.8 17.6 27.2 28.8z"/><glyph glyph-name="simple-add" unicode="" horiz-adv-x="256" d="M240 144h-96v96c0 9.6-6.4 16-16 16s-16-6.4-16-16v-96H16c-9.6 0-16-6.4-16-16s6.4-16 16-16h96V16c0-9.6 6.4-16 16-16s16 6.4 16 16v96h96c9.6 0 16 6.4 16 16s-6.4 16-16 16z"/><glyph glyph-name="email-83" unicode="" horiz-adv-x="256" d="M240 240H16c-9.6 0-16-6.4-16-16v-22.4l128-72L256 200v24c0 9.6-6.4 16-16 16zM120 97.6L0 164.8V32c0-9.6 6.4-16 16-16h224c9.6 0 16 6.4 16 16v132.8L136 97.6c-4.48-2.24-11.52-2.24-16 0z"/><glyph glyph-name="check-2" unicode="" horiz-adv-x="256" d="M228.8 219.2L80 70.4l-52.8 52.8c-6.4 6.4-16 6.4-22.4 0s-6.4-16 0-22.4l64-64C72 33.6 75.2 32 80 32s8 1.6 11.2 4.8l160 160c6.4 6.4 6.4 16 0 22.4s-16 6.4-22.4 0z"/><glyph glyph-name="simple-remove" unicode="" horiz-adv-x="256" d="M235.2 235.2c-6.4 6.4-16 6.4-22.4 0L128 150.4l-84.8 84.8c-6.4 6.4-16 6.4-22.4 0s-6.4-16 0-22.4l84.8-84.8-84.8-84.8c-6.4-6.4-6.4-16 0-22.4C24 17.6 27.2 16 32 16s8 1.6 11.2 4.8l84.8 84.8 84.8-84.8c3.2-3.2 8-4.8 11.2-4.8s8 1.6 11.2 4.8c6.4 6.4 6.4 16 0 22.4L150.4 128l84.8 84.8c6.4 6.4 6.4 16 0 22.4z"/><glyph glyph-name="menu-34" unicode="" horiz-adv-x="256" d="M240 144H16c-9.6 0-16-6.4-16-16s6.4-16 16-16h224c9.6 0 16 6.4 16 16s-6.4 16-16 16zm0 96H16c-9.6 0-16-6.4-16-16s6.4-16 16-16h224c9.6 0 16 6.4 16 16s-6.4 16-16 16zm0-192H16C6.4 48 0 41.6 0 32s6.4-16 16-16h224c9.6 0 16 6.4 16 16s-6.4 16-16 16z"/><glyph glyph-name="logo-fb-simple-2" unicode="" horiz-adv-x="256" d="M96.367 0L96 112H48v48h48v32c0 43.187 26.744 64 65.27 64 18.454 0 34.315-1.374 38.937-1.988v-45.133l-26.72-.012c-20.952 0-25.01-9.957-25.01-24.567V160H208l-16-48h-43.522V0H96.367z"/><glyph glyph-name="logo-twitter-2" unicode="" horiz-adv-x="256" d="M256 208c-9.6-4.8-19.2-6.4-30.4-8 11.2 6.4 19.2 16 22.4 28.8-9.6-6.4-20.8-9.6-33.6-12.8-9.6 9.6-24 16-38.4 16-27.2 0-51.2-24-51.2-52.8 0-4.8 0-8 1.6-11.2-43.2 1.6-83.2 22.4-108.8 54.4-4.8-8-6.4-16-6.4-27.2 0-17.6 9.6-33.6 24-43.2-8 0-16 3.2-24 6.4 0-25.6 17.6-46.4 41.6-51.2-4.8-1.6-9.6-1.6-14.4-1.6-3.2 0-6.4 0-9.6 1.6 6.4-20.8 25.6-36.8 49.6-36.8C60.8 56 38.4 48 12.8 48H0c24-14.4 51.2-24 80-24 96 0 148.8 80 148.8 148.8v6.4c11.2 8 20.8 17.6 27.2 28.8z"/><glyph glyph-name="link-72" unicode="" horiz-adv-x="256" d="M72 0C52.8 0 35.2 8 20.8 20.8-8 49.6-8 94.4 20.8 123.2L32 134.4 54.4 112l-11.2-11.2c-16-16-16-41.6 0-57.6s41.6-16 57.6 0l48 48c16 16 16 41.6 0 57.6L137.6 160l22.4 22.4 11.2-11.2c28.8-28.8 28.8-73.6 0-102.4l-48-48C110.4 8 91.2 0 72 0zm24 73.6L84.8 84.8c-28.8 28.8-28.8 73.6 0 102.4l48 48c14.4 14.4 32 20.8 51.2 20.8s36.8-8 51.2-20.8c28.8-28.8 28.8-73.6 0-102.4L224 121.6 201.6 144l11.2 11.2c16 16 16 41.6 0 57.6s-41.6 16-57.6 0l-48-48c-16-16-16-41.6 0-57.6L118.4 96 96 73.6z"/><glyph glyph-name="lock" unicode="" horiz-adv-x="256" d="M128 256c-35.2 0-64-28.8-64-64v-16H32c-9.6 0-16-6.4-16-16V16c0-9.6 6.4-16 16-16h192c9.6 0 16 6.4 16 16v144c0 9.6-6.4 16-16 16h-32v16c0 35.2-28.8 64-64 64zm16-187.2V48h-32v20.8c-9.6 4.8-16 16-16 27.2 0 17.6 14.4 32 32 32s32-14.4 32-32c0-11.2-6.4-22.4-16-27.2zM160 176H96v16c0 17.6 14.4 32 32 32s32-14.4 32-32v-16z"/><glyph glyph-name="quote" unicode="" horiz-adv-x="256" d="M48.378 183.03c-18.961-23.702-21.697-47.589-16.126-64.302 21.054 16.719 50.315 13.218 68.132-3.427 17.999-16.815 19.548-46.372 8.063-65.512-9.66-16.101-26.626-25.802-45.555-25.802C19.81 23.987 0 61.984 0 104.617c0 27.683 7.055 52.477 21.165 74.381s35.41 39.576 63.9 53.015l7.66-14.917c-17.202-7.257-31.984-18.612-44.347-34.066zm140.296 0c-18.961-23.702-21.697-47.589-16.126-64.302 9.407 7.256 19.62 10.885 30.64 10.885 28.986 0 52.812-19.306 52.812-52.813 0-30.812-23.646-52.813-52.813-52.813-43.08 0-62.891 37.997-62.891 80.63 0 27.683 7.055 52.477 21.165 74.381 14.11 21.905 35.41 39.576 63.9 53.015l7.66-14.917c-17.202-7.257-31.984-18.612-44.347-34.066z"/><glyph glyph-name="car-2" unicode="" horiz-adv-x="256" d="M24.023 183.029L0 153.043V75h21.777l.621-3.25c1.896-9.935 10.448-20.562 20.531-25.514C47.872 43.808 49.627 43.5 58.5 43.5c8.778 0 10.705.33 15.77 2.704 6.09 2.854 14.619 10.757 17.41 16.132.904 1.74 2.162 5.189 2.797 7.664l1.153 4.5 27.071.266 27.07.266.624-3.266c1.899-9.951 10.444-20.575 20.534-25.53 4.943-2.428 6.698-2.736 15.571-2.736 8.778 0 10.705.33 15.77 2.704 6.09 2.854 14.619 10.757 17.41 16.132.904 1.74 2.162 5.189 2.796 7.664l1.153 4.5 16.185.275L256 75.05v84.92l-29.194.265-29.193.265-15.613 26-15.614 26-59.169.258-59.17.258-24.024-29.987M96 176v-16H32.83l4.192 5.25a26124.69 26124.69 0 0 1 12.755 16L58.339 192H96v-16m66.116 2.25c4.531-7.563 8.885-14.763 9.676-16l1.438-2.25H117v32h36.877l8.239-13.75m72.654-61l.27-21.25h-7.453c-6.449 0-7.534.256-8.057 1.904-1.192 3.757-11.357 13.127-17.221 15.874-5.109 2.394-7.015 2.722-15.809 2.722-9.064 0-10.539-.273-15.752-2.915-6.197-3.14-13.946-10.134-16.326-14.735L152.949 96h-30.407c-29.019 0-30.435.087-31.012 1.904-1.192 3.757-11.357 13.127-17.221 15.874-5.109 2.394-7.015 2.722-15.809 2.722-9.064 0-10.539-.273-15.752-2.915-6.197-3.14-13.946-10.134-16.326-14.735-.865-1.673-2.289-2.85-3.448-2.85C21.07 96 21 96.76 21 117.505v21.504l106.75-.254 106.75-.255.27-21.25M65.939 94.031c11.294-5.761 10.996-23.038-.491-28.489C55.429 60.788 43 68.626 43 79.698c0 12.255 12.141 19.842 22.939 14.333m128 0c11.294-5.761 10.996-23.038-.491-28.489C183.429 60.788 171 68.626 171 79.698c0 12.255 12.141 19.842 22.939 14.333"/><glyph glyph-name="home-51" unicode="" horiz-adv-x="256" d="M71.5 197.835c-30.8-28.057-58.675-53.391-61.944-56.298l-5.945-5.286 2.834-3.376c1.558-1.856 4.764-5.526 7.125-8.156l4.291-4.781 6.447 6.031c3.546 3.317 6.727 6.031 7.069 6.031.343 0 .623-27.225.623-60.5V11h85v53h22V11h85v60.5c0 33.275.28 60.5.623 60.5.342 0 3.507-2.699 7.034-5.998l6.411-5.998 6.967 7.746c3.832 4.26 6.854 8.068 6.716 8.462-.269.769-123.555 112.84-123.991 112.711-.143-.042-25.46-23.032-56.26-51.088m94.402-12.105L203 151.96V32h-43v53H96V32H53v119.951l37.25 33.978c20.488 18.689 37.543 33.887 37.902 33.775.358-.112 17.346-15.4 37.75-33.974M96 139v-32h64v64H96v-32m43-.5V128h-22v21h22v-10.5"/><glyph glyph-name="tail-left-2" unicode="" horiz-adv-x="256" d="M50.999 172.499L6.506 127.997l44.735-44.735 44.735-44.735 7.522 7.471 7.521 7.471-31.748 31.76-31.749 31.761 93.489.255 93.489.255v21l-93.256.5-93.256.5 31.497 31.485 31.497 31.486-7.216 7.264c-3.969 3.996-7.454 7.265-7.745 7.265-.291 0-20.551-20.026-45.022-44.501"/><glyph glyph-name="tail-right-2" unicode="" horiz-adv-x="256" d="M152.24 209.757l-7.243-7.243 31.746-31.757L208.488 139H21v-22h187.488l-31.754-31.765-31.753-31.766 7.521-7.471 7.522-7.471 44.735 44.735 44.735 44.735-44.493 44.502C180.53 196.974 160.278 217 159.996 217c-.282 0-3.773-3.259-7.756-7.243"/><glyph glyph-name="archive-3d-content" unicode="" horiz-adv-x="256" d="M224 243.2c-1.6 8-8 12.8-16 12.8H48c-8 0-14.4-4.8-16-12.8C32 243.2 0 88 0 80V16C0 6.4 6.4 0 16 0h224c9.6 0 16 6.4 16 16v64c0 8-32 163.2-32 163.2zM60.8 224h134.4l25.6-128H176c-9.6 0-16-6.4-16-16V64H96v16c0 9.6-6.4 16-16 16H35.2l25.6 128z"/><glyph glyph-name="lock-2" unicode="" horiz-adv-x="256" d="M128 256c-35.2 0-64-28.8-64-64v-16H32c-9.6 0-16-6.4-16-16V16c0-9.6 6.4-16 16-16h192c9.6 0 16 6.4 16 16v144c0 9.6-6.4 16-16 16h-32v16c0 35.2-28.8 64-64 64zm16-187.2V48h-32v20.8c-9.6 4.8-16 16-16 27.2 0 17.6 14.4 32 32 32s32-14.4 32-32c0-11.2-6.4-22.4-16-27.2zM160 176H96v16c0 17.6 14.4 32 32 32s32-14.4 32-32v-16z"/><glyph glyph-name="car-simple" unicode="" horiz-adv-x="256" d="M46 186.507l-10.5-26.489-17.75-.009L0 160V75h21.777l.621-3.25c1.896-9.935 10.448-20.562 20.531-25.514C47.872 43.808 49.627 43.5 58.5 43.5c8.778 0 10.705.33 15.77 2.704 6.09 2.854 14.619 10.757 17.41 16.132.904 1.74 2.162 5.189 2.797 7.664l1.153 4.5 32.142.264 32.142.264 1.451-4.886c.798-2.687 2.159-6.255 3.024-7.928 2.718-5.255 11.301-13.18 17.341-16.01 5.065-2.374 6.992-2.704 15.77-2.704 8.856 0 10.633.311 15.533 2.718 10 4.91 18.693 15.701 20.569 25.532l.621 3.25H256v85h-56.796l-10.501 26.25-10.501 26.25-60.851.248-60.851.247L46 186.507M107 176v-16H83c-13.2 0-24.001.338-24.003.75-.002.412 2.746 7.612 6.107 16l6.11 15.25H107v-16m62.5.873c3.3-8.315 6.15-15.513 6.333-15.995.186-.489-10.348-.878-23.75-.878H128v32l17.75-.005 17.75-.004 6-15.118m65.27-59.623c.262-20.653.214-21.25-1.724-21.25-1.161 0-2.595 1.15-3.431 2.75-2.382 4.558-10.348 11.788-16.316 14.807-7.87 3.982-20.199 4.615-28.551 1.466-7.249-2.733-14.644-8.533-18.368-14.407l-2.88-4.543-35.683-.036c-34.223-.036-35.707.041-36.287 1.867-1.192 3.757-11.357 13.127-17.221 15.874-5.109 2.394-7.015 2.722-15.809 2.722-9.064 0-10.539-.273-15.752-2.915-6.197-3.14-13.946-10.134-16.326-14.735-.865-1.673-2.289-2.85-3.448-2.85C21.07 96 21 96.76 21 117.505v21.504l106.75-.254 106.75-.255.27-21.25M65.939 94.031c11.294-5.761 10.996-23.038-.491-28.489C55.429 60.788 43 68.626 43 79.698c0 12.255 12.141 19.842 22.939 14.333m139.885-.733c12.267-9.086 7.82-27.344-7.068-29.022-16.729-1.886-23.78 21.673-8.908 29.763 4.56 2.481 12.098 2.131 15.976-.741"/><glyph glyph-name="archive-3d-check" unicode="" horiz-adv-x="256" d="M36 180v-72h8v136h168V108h8v144H36v-72m103.754-6.741l-27.741-27.741-12.003 11.972-12.003 11.972-2.74-2.74-2.74-2.74 14.738-14.738 14.737-14.738 30.709 30.709 30.709 30.709-2.384 2.538c-1.312 1.396-2.645 2.538-2.963 2.538-.317 0-13.061-12.483-28.319-27.741M4 48V4h248v88h-88V68H92v24H4V48m80 24V60h88v24h72V12H12v72h72V72"/><glyph glyph-name="gift-2" unicode="" horiz-adv-x="256" d="M73.5 251.062c-19.424-4.75-27.906-28.042-15.929-43.743L60.102 204H4v-48h24V12h200v144h24v48h-56.102l2.531 3.319c7.747 10.156 7.283 24.816-1.095 34.604-9.522 11.124-27.266 12.969-42.149 4.382-7.128-4.113-16.089-13.868-22.04-23.995l-5.356-9.113-2.937 5.585c-9.202 17.492-20.778 28.141-34.472 31.707-6.119 1.594-11.901 1.79-16.88.573m20.945-10.579c6.858-3.245 13.25-9.393 18.907-18.185 4.198-6.525 8.648-15.525 8.648-17.49 0-.565-9.608-.812-24.25-.622-23.121.299-24.418.419-27.866 2.563-1.99 1.237-4.905 4.162-6.48 6.5-2.417 3.588-2.865 5.265-2.875 10.751-.009 5.406.435 7.147 2.636 10.344 2.706 3.929 7.828 7.98 11.36 8.984 4.21 1.198 14.473-.269 19.92-2.845m92.049.215c2.032-1.381 4.885-4.24 6.341-6.354 2.201-3.197 2.645-4.938 2.636-10.344-.01-5.486-.458-7.163-2.875-10.751-1.575-2.338-4.49-5.263-6.48-6.5-3.448-2.144-4.745-2.264-27.866-2.563-15.408-.2-24.25.043-24.25.667 0 2.09 4.181 10.577 8.5 17.254 9.931 15.351 21.147 22.295 34.65 21.453 3.964-.247 6.753-1.101 9.344-2.862M100 180v-16H12v32h88v-16m48 0v-16h-40v32h40v-16m96 0v-16h-88v32h88v-16M100 88V20H36v136h64V88m48 0V20h-40v136h40V88m72 0V20h-64v136h64V88"/><glyph glyph-name="copy-2" unicode="" horiz-adv-x="256" d="M0 149.5V43h96v21H21v171.013l74.75-.257 74.75-.256.262-37.25.262-37.25H117V0h139v160h-64v96H0V149.5M234.5 80V21.5l-47.75-.26-47.75-.259v118.038l47.75-.259 47.75-.26V80"/><glyph glyph-name="chat-46" unicode="" horiz-adv-x="256" d="M0 176V96h42.972l.264-31.427.264-31.428 43.999 31.428L131.498 96H213v160H0v-80m192 0v-59h-67.713L94.143 95.553 64 74.105V117H21v118h171v-59m43-32V75h-43V58.5c0-9.075-.226-16.5-.503-16.5s-11.666 7.44-25.309 16.533l-24.805 16.534-11.942-.284L117.5 74.5v-21l9.313-.288 9.314-.289 38.186-25.463L212.5 1.996l.267 25.502.267 25.502H256v160h-21v-69"/><glyph glyph-name="logo-facebook" unicode="" horiz-adv-x="256" d="M234.667 256H21.333C9.547 256 0 246.453 0 234.667V21.333C0 9.547 9.547 0 21.333 0h117.334v96h-32v42.667h32v27.594c0 33.067 20.192 51.072 49.696 51.072 14.133 0 26.272-1.056 29.813-1.525v-34.56l-20.459-.01c-16.042 0-19.146-7.627-19.146-18.806v-23.765h47.36L215.264 96h-36.693V0h56.096C246.453 0 256 9.547 256 21.333v213.334c0 11.786-9.547 21.333-21.333 21.333z"/><glyph glyph-name="circle-remove" unicode="" horiz-adv-x="256" d="M108.5 254.445C52.322 244.952 9.966 202.042 1.455 146c-6.043-39.789 8.218-81.082 37.9-109.738 49.946-48.22 127.344-48.22 177.29 0 52.378 50.567 52.246 132.652-.294 183.896-27.832 27.146-70.269 40.637-107.851 34.287m30.547-20.498c16.343-1.677 34.219-8.151 48.863-17.696 7.269-4.738 23.661-21.162 28.45-28.505 7.951-12.192 13.999-27.352 16.673-41.79 1.729-9.337 1.457-28.94-.533-38.456-9.8-46.853-47.033-80.723-93.991-85.499C107.75 18.872 77.618 29.17 55.12 50.5c-21.881 20.744-33.295 47.087-33.361 77-.05 22.064 5.73 41.631 17.728 60.015 4.922 7.542 21.242 23.938 28.603 28.736 17.189 11.204 37.004 17.558 58.054 18.616 1.454.073 7.26-.341 12.903-.92m-61.324-55.722c-3.698-3.726-6.723-7.21-6.723-7.741 0-.532 9.333-10.308 20.741-21.725L112.482 128l-20.741-20.759C80.333 95.824 71 86.024 71 85.464 71 84.173 84.22 71 85.516 71c.532 0 10.308 9.333 21.725 20.741L128 112.482l20.759-20.741C160.176 80.333 169.976 71 170.536 71c.559 0 4.144 3.15 7.964 7l6.946 7-6.965 7.25c-3.832 3.988-13.265 13.663-20.963 21.502l-13.996 14.252 20.739 20.757C175.667 160.177 185 169.976 185 170.536c0 1.291-13.22 14.464-14.516 14.464-.532 0-10.308-9.333-21.725-20.741L128 143.518l-20.759 20.741C95.824 175.667 86.024 185 85.464 185c-.559 0-4.043-3.049-7.741-6.775"/><glyph glyph-name="check-circle-08" unicode="" horiz-adv-x="256" d="M108.5 254.445C52.322 244.952 9.966 202.042 1.455 146c-6.043-39.789 8.218-81.082 37.9-109.738 49.946-48.22 127.344-48.22 177.29 0 52.378 50.567 52.246 132.652-.294 183.896-27.832 27.146-70.269 40.637-107.851 34.287m30.547-20.498c16.343-1.677 34.219-8.151 48.863-17.696 7.269-4.738 23.661-21.162 28.45-28.505 7.951-12.192 13.999-27.352 16.673-41.79 1.729-9.337 1.457-28.94-.533-38.456-9.8-46.853-47.033-80.723-93.991-85.499C107.75 18.872 77.618 29.17 55.12 50.5c-21.881 20.744-33.295 47.087-33.361 77-.05 22.064 5.73 41.631 17.728 60.015 4.922 7.542 21.242 23.938 28.603 28.736 17.189 11.204 37.004 17.558 58.054 18.616 1.454.073 7.26-.341 12.903-.92m10.205-91.192l-42.245-42.245-21.504 21.487-21.504 21.486-7.742-7.742-7.742-7.742 28.486-28.5C92.668 83.825 105.938 71 106.49 71c.551 0 23.387 22.381 50.746 49.736l49.744 49.737-7.215 7.263c-3.968 3.995-7.452 7.264-7.741 7.264-.29 0-19.537-19.01-42.772-42.245"/><glyph glyph-name="b-meeting" unicode="" horiz-adv-x="256" d="M108 189.88v-62.121l4.25 3.442c2.338 1.892 12.513 10.047 22.613 18.12L153.225 164H252v88H108v-62.12M244 208v-36h-93.502l-16.686-13.5c-9.178-7.425-16.94-13.5-17.249-13.5-.31 0-.563 22.275-.563 49.5V244h128v-36M49.5 139.12C36.867 135.785 28 124.6 28 112c0-15.058 12.942-28 28-28s28 12.942 28 28c0 14.362-11.244 26.359-25.746 27.471-3.165.243-7.104.085-8.754-.351m144 0C180.867 135.785 172 124.6 172 112c0-15.058 12.942-28 28-28s28 12.942 28 28c0 14.362-11.244 26.359-25.746 27.471-3.165.243-7.104.085-8.754-.351M66.531 128.673c2.011-1.367 4.848-4.215 6.304-6.329 2.201-3.197 2.645-4.938 2.636-10.344-.01-5.486-.458-7.163-2.875-10.751C68.285 94.849 63.83 92.5 56 92.5s-12.285 2.349-16.596 8.749c-2.417 3.588-2.865 5.265-2.875 10.751-.009 5.406.435 7.147 2.636 10.344 2.708 3.932 7.834 7.985 11.36 8.981 4.216 1.19 12.329-.154 16.006-2.652m144 0c2.011-1.367 4.848-4.215 6.304-6.329 2.201-3.197 2.645-4.938 2.636-10.344-.01-5.486-.458-7.163-2.875-10.751-4.311-6.4-8.766-8.749-16.596-8.749s-12.285 2.349-16.596 8.749c-2.417 3.588-2.865 5.265-2.875 10.751-.009 5.406.435 7.147 2.636 10.344 2.708 3.932 7.834 7.985 11.36 8.981 4.216 1.19 12.329-.154 16.006-2.652M46 67.422c-1.375-.245-5.2-.915-8.5-1.49-14.407-2.508-27.348-9.494-31.193-16.839C4.172 45.013 4 43.47 4 28.343V12h104l-.076 15.75c-.083 17.145-.791 20.512-5.319 25.31-3.871 4.102-15.116 9.638-24.469 12.047-7.333 1.889-26.699 3.284-32.136 2.315m144 0c-1.375-.245-5.2-.915-8.5-1.49-14.407-2.508-27.348-9.494-31.193-16.839-2.135-4.08-2.307-5.623-2.307-20.75V12h104l-.076 15.75c-.083 17.145-.791 20.512-5.319 25.31-3.871 4.102-15.116 9.638-24.469 12.047-7.333 1.889-26.699 3.284-32.136 2.315m-120.799-8.51C82.985 56.082 92.729 52.089 97 47.52c2.343-2.507 2.521-3.456 2.832-15.098L100.163 20H11.837l.331 12.484c.329 12.371.359 12.509 3.332 15.401 3.774 3.671 14.869 8.504 24 10.456 8.412 1.798 22.414 2.067 29.701.571m144 0c13.784-2.83 23.528-6.823 27.799-11.392 2.343-2.507 2.521-3.456 2.832-15.098L244.163 20h-88.326l.331 12.484c.329 12.371.359 12.509 3.332 15.401 3.774 3.671 14.869 8.504 24 10.456 8.412 1.798 22.414 2.067 29.701.571"/><glyph glyph-name="headset" unicode="" horiz-adv-x="256" d="M109.655 250.469c-42.331-8.005-75.26-38.58-86.366-80.192-2.476-9.276-2.632-11.328-3.047-40.027L19.805 100h8.017l.44 29.75c.522 35.364 1.343 39.865 10.72 58.75 14.583 29.372 40.086 48.316 72.701 54.004 16.847 2.938 33.278 1.34 50.867-4.946 24.32-8.693 42.438-25.021 54.436-49.058 10.312-20.658 10.325-20.755 10.758-79.093.412-55.443.234-57.565-5.853-69.623-3.934-7.793-13.405-17.285-21.484-21.531-7.544-3.966-16.812-6.219-25.657-6.238L168 12V4l7.25.017c17.211.042 30.031 5.33 42.378 17.483 9.254 9.108 14.605 18.393 16.935 29.385 2.113 9.968 2.035 96.876-.098 110.031-6.899 42.539-38.246 76.832-80.188 87.725-12.48 3.241-32.759 4.072-44.622 1.828M40 101.866c0-22.476.386-35.422 1.13-37.904C42.879 58.123 48.875 51.05 55 47.599c5.289-2.98 6.027-3.112 19.25-3.445L88 43.808V136H40v-34.134m128-11.962V43.808l13.75.346c13.223.333 13.961.465 19.25 3.445 6.455 3.637 12.378 10.872 13.923 17.009.663 2.633 1.077 17.175 1.077 37.835V136h-48V89.904M80 90V52h-8.343c-10.128 0-15.574 2.408-20.157 8.911l-3 4.257-.303 31.416L47.895 128H80V90m127.803 6.584l-.303-31.416-3-4.257C199.917 54.408 194.471 52 184.343 52H176v76h32.105l-.302-31.416M120 8V4h32v8h-32V8"/><glyph glyph-name="settings-gear-63" unicode="" horiz-adv-x="256" d="M96 237.136v-18.864l-4.611-1.761-4.611-1.761-13.395 13.367-13.394 13.366-22.736-22.736-22.736-22.736 13.366-13.394 13.367-13.395-1.761-4.611L37.728 160H0V96h37.728l1.761-4.611 1.761-4.611-13.367-13.395-13.366-13.394 22.736-22.736 22.736-22.736 13.394 13.366L86.778 41.25l4.611-1.761L96 37.728V0h64v37.728l4.611 1.761 4.611 1.761 13.395-13.367 13.394-13.366 22.736 22.736 22.736 22.736-13.366 13.394-13.367 13.395 1.761 4.611L218.272 96H256v64h-37.728l-1.761 4.611-1.761 4.611 13.367 13.395 13.366 13.394-22.736 22.736-22.736 22.736-13.394-13.366-13.395-13.367-4.611 1.761-4.611 1.761V256H96v-18.864m43-18.482v-16.346l7.75-2.232c4.262-1.227 11.866-4.388 16.896-7.024l9.147-4.791 11.334 11.366 11.335 11.367 7.773-7.728 7.773-7.727-11.379-11.52L188.25 172.5l4.387-8c2.413-4.4 5.587-11.938 7.054-16.75l2.666-8.75H235v-22h-32.692l-2.232-7.75c-1.227-4.262-4.388-11.866-7.024-16.896l-4.791-9.147 11.366-11.334 11.367-11.335-7.728-7.773-7.727-7.773-11.52 11.415L172.5 67.822l-3.5-2.266c-4.967-3.216-16.418-8.108-23.75-10.146L139 53.672V21h-22v32.568l-9.535 2.864c-5.244 1.576-12.854 4.757-16.912 7.069l-7.379 4.205-11.318-11.35-11.318-11.35-7.773 7.728-7.773 7.727 11.379 11.52L67.75 83.5l-4.387 8c-2.413 4.4-5.587 11.937-7.054 16.75L53.643 117H21v22h32.643l2.666 8.75c1.467 4.812 4.641 12.35 7.054 16.75l4.387 8-11.379 11.519-11.379 11.52 7.773 7.727 7.773 7.728 11.335-11.367 11.334-11.366 9.147 4.791c5.03 2.636 12.633 5.797 16.896 7.024l7.75 2.232V235h22v-16.346m-17.146-48.718c-11.76-1.353-25.023-10.387-31.031-21.137-9.187-16.438-6.216-37.311 7.225-50.751 24.566-24.567 66.447-10.709 72.009 23.826 3.246 20.153-10.044 40.892-30.057 46.904-4.958 1.49-11.585 1.912-18.146 1.158m17.49-24.121c2.114-1.445 5.039-4.357 6.5-6.471 2.297-3.324 2.656-4.858 2.656-11.344 0-6.532-.353-8.016-2.737-11.5-1.505-2.2-4.397-5.125-6.426-6.5-3.14-2.127-4.831-2.5-11.337-2.5-6.506 0-8.197.373-11.337 2.5-11.281 7.643-13.02 23.49-3.609 32.9 4.725 4.725 8.736 6.197 15.946 5.853 5.043-.241 7.362-.9 10.344-2.938"/><glyph glyph-name="alert-circle-que" unicode="" horiz-adv-x="256" d="M108.5 254.445C52.322 244.952 9.966 202.042 1.455 146c-6.043-39.789 8.218-81.082 37.9-109.738 49.946-48.22 127.344-48.22 177.29 0 52.378 50.567 52.246 132.652-.294 183.896-27.832 27.146-70.269 40.637-107.851 34.287m30.547-20.498c16.343-1.677 34.219-8.151 48.863-17.696 7.269-4.738 23.661-21.162 28.45-28.505 7.951-12.192 13.999-27.352 16.673-41.79 1.729-9.337 1.457-28.94-.533-38.456-9.8-46.853-47.033-80.723-93.991-85.499C107.75 18.872 77.618 29.17 55.12 50.5c-21.881 20.744-33.295 47.087-33.361 77-.05 22.064 5.73 41.631 17.728 60.015 4.922 7.542 21.242 23.938 28.603 28.736 17.189 11.204 37.004 17.558 58.054 18.616 1.454.073 7.26-.341 12.903-.92M118 190.569c-7.059-1.964-12.898-5.359-18.773-10.915-5.744-5.433-8.568-9.642-12.619-18.809l-2.499-5.655 8.413-3.614c4.627-1.987 9.015-3.845 9.752-4.128.891-.342 2.45 1.85 4.648 6.535 8.957 19.091 28.048 22.294 38.841 6.517 2.356-3.443 2.737-4.998 2.737-11.164 0-6.353-.341-7.649-3.017-11.456-4.58-6.516-11.769-9.88-21.117-9.88h-7.406l.27-21.25.27-21.25h21l.5 11.255.5 11.255 6.321 2.986c21.401 10.11 30.537 35.615 20.245 56.521-8.887 18.052-29.87 28.115-48.066 23.052m7.327-116.277c-3.024-.572-7.077-4.876-7.833-8.318-.915-4.165 1.921-9.468 6.13-11.466 4.275-2.029 8.315-1.296 11.74 2.128 7.535 7.536.635 19.674-10.037 17.656"/><glyph glyph-name="gift-2-2" unicode="" horiz-adv-x="256" d="M60.591 254.882c-9.43-2.212-19.388-10.594-24.451-20.581-1.171-2.31-2.673-7.373-3.338-11.25-1.484-8.656-.063-18.629 3.719-26.092L39.034 192H21.971c-16.782 0-17.102-.04-19.516-2.455L0 187.091v-53.799l2.452-2.646L4.905 128h246.19l2.453 2.646 2.452 2.646v53.799l-2.455 2.454c-2.414 2.415-2.734 2.455-19.516 2.455h-17.063l2.513 4.959c9.98 19.694 2.176 45.318-16.723 54.911-15.891 8.066-36.495 3.724-52.244-11.008-6.648-6.218-16.442-19.793-19.924-27.612-1.04-2.338-2.205-4.25-2.588-4.25s-1.548 1.913-2.588 4.25c-3.516 7.897-13.397 21.559-19.906 27.523-13.502 12.372-30.097 17.585-44.915 14.109m23.723-18.716c6.972-3.432 14.061-9.984 19.655-18.166 3.807-5.567 11.184-19.62 12.467-23.75l.699-2.25h-25.6c-27.855 0-30.154.372-35.877 5.803-5.16 4.898-7.112 9.892-7.112 18.197 0 5.743.501 8.437 2.136 11.5 6.648 12.455 19.31 15.717 33.632 8.666m109.468 2.281c14.044-5.867 18.554-24.89 8.926-37.655-1.78-2.361-5.238-5.305-7.684-6.542-4.271-2.161-5.475-2.25-30.303-2.25h-25.856l.7 2.25c1.133 3.646 9.007 18.893 12.156 23.54 11.594 17.108 29.503 25.903 42.061 20.657M240 160v-16H16v32h224v-16M34.455 109.545L32 107.091V5.292l2.452-2.646L36.905 0h182.19l2.453 2.646L224 5.292v101.799l-2.455 2.454c-3.247 3.248-7.843 3.248-11.09 0L208 107.091V16H48v91.091l-2.455 2.454C43.998 111.093 41.948 112 40 112s-3.998-.907-5.545-2.455"/><glyph glyph-name="alert-circle-que-2" unicode="" horiz-adv-x="256" d="M116.835 238.526c-24.007-3.932-47.599-16.191-65.384-33.977C14.862 167.96 5.787 113.878 28.456 67.5c14.705-30.086 39.938-51.64 72.492-61.924 40.644-12.839 84.935-2.506 117.218 27.347C241.525 54.524 255.993 87.83 255.992 120c-.001 48.23-29.766 92.271-75.042 111.036-18.605 7.711-44.38 10.722-64.115 7.49m33.714-15.596c22.566-3.139 43.417-13.862 59.485-30.593 13.66-14.224 21.701-28.363 26.635-46.837 2.349-8.796 2.67-11.866 2.67-25.5 0-13.578-.328-16.74-2.647-25.5C222.845 42.193 172.188 8.897 119.5 17.473 78.946 24.074 45.963 54.25 35.308 94.5c-2.319 8.76-2.647 11.922-2.647 25.5s.328 16.74 2.647 25.5c2.965 11.202 10.464 27.195 16.645 35.5 23.33 31.346 60.634 47.21 98.596 41.93m-24.201-24.286C114.267 195.564 104 188.302 104 182.836c0-3.789 3.983-7.837 7.705-7.832 1.537.003 4.82 1.36 7.295 3.016 15.601 10.44 35.988 6.488 39.94-7.743 2.261-8.142.823-12.105-8.136-22.424-14.079-16.217-18.548-24.022-21.223-37.061-2.351-11.459-2.114-16.925.871-20.146C135.851 84.821 144 89.063 144 97.699c0 6.759 2.732 17.261 5.932 22.805 1.587 2.748 6.342 9.046 10.567 13.996 9.781 11.459 11.984 14.915 14.062 22.062 4.605 15.839-4.625 34.289-20.186 40.355-7.241 2.822-20.52 3.64-28.027 1.727m3.102-136.051c-10.089-4.394-12.472-17.806-4.568-25.711 11.235-11.235 29.646-1.172 26.69 14.589-1.752 9.336-13.11 15.048-22.122 11.122"/><glyph glyph-name="small-triangle-down-2" unicode="" horiz-adv-x="256" d="M48 176l80-96 80 96z"/><glyph glyph-name="small-triangle-left-2" unicode="" horiz-adv-x="256" d="M176 208l-96-80 96-80z"/><glyph glyph-name="small-triangle-right-2" unicode="" horiz-adv-x="256" d="M80 48l96 80-96 80z"/><glyph glyph-name="small-triangle-up-2" unicode="" horiz-adv-x="256" d="M208 80l-80 96-80-96z"/><glyph glyph-name="alert-circle-i-2" unicode="" horiz-adv-x="256" d="M116.835 238.526c-24.007-3.932-47.599-16.191-65.384-33.977C14.862 167.96 5.787 113.878 28.456 67.5c14.705-30.086 39.938-51.64 72.492-61.924 40.644-12.839 84.935-2.506 117.218 27.347C241.525 54.524 255.993 87.83 255.992 120c-.001 48.23-29.766 92.271-75.042 111.036-18.605 7.711-44.38 10.722-64.115 7.49m33.714-15.596c22.566-3.139 43.417-13.862 59.485-30.593 13.66-14.224 21.701-28.363 26.635-46.837 2.349-8.796 2.67-11.866 2.67-25.5 0-13.578-.328-16.74-2.647-25.5C222.845 42.193 172.188 8.897 119.5 17.473 78.946 24.074 45.963 54.25 35.308 94.5c-2.319 8.76-2.647 11.922-2.647 25.5s.328 16.74 2.647 25.5c2.965 11.202 10.464 27.195 16.645 35.5 23.33 31.346 60.634 47.21 98.596 41.93m-21.099-32.337c-10.089-4.394-12.472-17.806-4.568-25.711 11.235-11.235 29.646-1.172 26.69 14.589-1.752 9.336-13.11 15.048-22.122 11.122m1.005-65.048L128 123.091V53.292l2.452-2.646c3.292-3.552 7.804-3.552 11.096 0L144 53.292v69.799l-2.455 2.454C139.998 127.093 137.948 128 136 128s-3.998-.907-5.545-2.455"/><glyph glyph-name="alert-circle-exc" unicode="" horiz-adv-x="256" d="M116.835 238.526c-24.007-3.932-47.599-16.191-65.384-33.977C14.862 167.96 5.787 113.878 28.456 67.5c14.705-30.086 39.938-51.64 72.492-61.924 40.644-12.839 84.935-2.506 117.218 27.347C241.525 54.524 255.993 87.83 255.992 120c-.001 48.23-29.766 92.271-75.042 111.036-18.605 7.711-44.38 10.722-64.115 7.49m33.714-15.596c22.566-3.139 43.417-13.862 59.485-30.593 13.66-14.224 21.701-28.363 26.635-46.837 2.349-8.796 2.67-11.866 2.67-25.5 0-13.578-.328-16.74-2.647-25.5C222.845 42.193 172.188 8.897 119.5 17.473 78.946 24.074 45.963 54.25 35.308 94.5c-2.319 8.76-2.647 11.922-2.647 25.5s.328 16.74 2.647 25.5c2.965 11.202 10.464 27.195 16.645 35.5 23.33 31.346 60.634 47.21 98.596 41.93m-20.094-33.385L128 187.091v-77.799l2.452-2.646c1.634-1.763 3.485-2.646 5.548-2.646s3.914.883 5.548 2.646l2.452 2.646v77.799l-2.455 2.454C139.998 191.093 137.948 192 136 192s-3.998-.907-5.545-2.455M129.45 78.593c-10.089-4.394-12.472-17.806-4.568-25.711 11.235-11.235 29.646-1.172 26.69 14.589-1.752 9.336-13.11 15.048-22.122 11.122"/><glyph glyph-name="shape-star" unicode="" horiz-adv-x="256" d="M123.423 248.584c-1.112-.779-10.041-17.798-19.842-37.821L85.76 174.358l-39.63-5.8c-21.796-3.19-40.53-6.269-41.63-6.842-2.962-1.544-4.432-3.866-4.468-7.057-.035-3.112-1.209-1.865 37.718-40.037C49.437 103.161 59 93.2 59 92.486c0-.713-2.925-18.275-6.5-39.024-3.575-20.75-6.5-38.813-6.5-40.14C46 10.131 50.243 6 53.52 6c1.455 0 18.533 8.367 38.546 18.883L128 43.767l35.934-18.884C183.947 14.367 201.025 6 202.48 6c3.207 0 7.52 4.107 7.52 7.161 0 1.239-2.954 19.508-6.563 40.597-3.61 21.089-6.423 38.889-6.25 39.554.172.666 13.13 13.71 28.795 28.988 15.665 15.277 28.87 28.472 29.346 29.321 1.562 2.792-.187 8.257-3.123 9.753-1.488.759-20.539 3.991-42.335 7.182l-39.63 5.802-17.821 36.405c-9.801 20.023-18.73 37.042-19.842 37.821-2.586 1.811-6.568 1.811-9.154 0m20.455-56.628c12.83-26.161 15.648-31.205 17.914-32.067 1.479-.562 17.318-3.092 35.199-5.622 17.88-2.53 32.704-4.758 32.943-4.951.239-.193-10.675-11.183-24.253-24.422s-24.937-25.067-25.243-26.285c-.306-1.218 1.968-16.973 5.053-35.012s5.474-33.18 5.309-33.648c-.165-.469-13.575 6.168-29.8 14.748-21.827 11.542-30.41 15.599-33 15.599s-11.173-4.057-33-15.599c-16.225-8.58-29.643-15.192-29.818-14.694-.175.499 2.217 15.627 5.316 33.619 3.099 17.992 5.381 33.723 5.072 34.957-.31 1.234-11.673 13.076-25.251 26.315-13.578 13.239-24.492 24.229-24.253 24.422.239.193 15.063 2.421 32.943 4.951 17.881 2.53 33.711 5.056 35.178 5.614 2.239.851 5.125 6.017 17.916 32.067 8.385 17.079 15.54 31.052 15.898 31.052.358 0 7.502-13.97 15.877-31.044"/><glyph glyph-name="shape-star-2" unicode="" horiz-adv-x="256" d="M242.304 168.976l-69.072 10.048L142.4 241.6a16.656 16.656 0 0 1-28.8 0l-30.832-62.592-69.072-10.032A16 16 0 0 1 4.8 141.68l49.968-48.72-11.792-68.8A16 16 0 0 1 66.192 7.296L128 39.792l61.776-32.464a16 16 0 0 1 23.216 16.864l-11.792 68.8 50 48.688a16 16 0 0 1-8.864 27.28z"/><glyph glyph-name="coins" unicode="" horiz-adv-x="256" d="M106.5 238.97c-46.411-5.252-77.042-25.857-74.194-49.906 1.78-15.028 15.01-27.346 38.343-35.698 55.498-19.867 134.663-6.107 150.347 26.134 3.432 7.053 3.487 18.003.126 24.831-7.599 15.433-31.108 28.045-62.122 33.325-10.392 1.769-41.582 2.55-52.5 1.314m51.996-17.46c10.915-1.949 24.847-6.509 32.748-10.721 23.001-12.259 21.968-26.921-2.735-38.824-17.579-8.471-33.342-11.41-61.009-11.376-22.414.028-32.787 1.434-47.961 6.503-21.898 7.316-33.031 17.14-31.098 27.444 2.283 12.172 28.809 25.027 58.574 28.385 11.715 1.321 40.61.529 51.481-1.411M34.338 157.429c-2.466-2.466-2.552-2.944-2.127-11.75.721-14.958 6.437-23.628 21.46-32.553 38.077-22.621 110.581-22.621 148.658 0 15.023 8.925 20.739 17.595 21.46 32.553.425 8.806.339 9.284-2.127 11.75-3.365 3.365-7.912 3.412-11.207.116-2.109-2.108-2.455-3.381-2.455-9.032 0-3.617-.616-8.053-1.37-9.856-4.089-9.787-26.661-20.721-51.13-24.769-11.971-1.98-45.594-1.714-57.461.455-17.911 3.274-36.208 10.774-43.908 17.996-4.579 4.296-6.131 8.389-6.131 16.174 0 5.651-.346 6.924-2.455 9.032-3.295 3.296-7.842 3.249-11.207-.116m0-48c-2.466-2.466-2.552-2.944-2.127-11.75.721-14.958 6.437-23.628 21.46-32.553 38.077-22.621 110.581-22.621 148.658 0 15.023 8.925 20.739 17.595 21.46 32.553.425 8.806.339 9.284-2.127 11.75-3.365 3.365-7.912 3.412-11.207.116-2.109-2.108-2.455-3.381-2.455-9.032 0-3.617-.616-8.053-1.37-9.856-4.089-9.787-26.661-20.721-51.13-24.769-11.971-1.98-45.594-1.714-57.461.455-17.911 3.274-36.208 10.774-43.908 17.996C49.552 88.635 48 92.728 48 100.513c0 5.651-.346 6.924-2.455 9.032-3.295 3.296-7.842 3.249-11.207-.116m0-48c-2.466-2.466-2.552-2.944-2.127-11.75.721-14.958 6.437-23.628 21.46-32.553 38.077-22.621 110.581-22.621 148.658 0 15.023 8.925 20.739 17.595 21.46 32.553.425 8.806.339 9.284-2.127 11.75-3.365 3.365-7.912 3.412-11.207.116-2.109-2.108-2.455-3.381-2.455-9.032 0-3.617-.616-8.053-1.37-9.856-4.089-9.787-26.661-20.721-51.13-24.769-11.971-1.98-45.594-1.714-57.461.455-17.911 3.274-36.208 10.774-43.908 17.996C49.552 40.635 48 44.728 48 52.513c0 5.651-.346 6.924-2.455 9.032-3.295 3.296-7.842 3.249-11.207-.116"/><glyph glyph-name="phone-call-2" unicode="" horiz-adv-x="256" d="M26.28 229.72L8 211.44v-6.759c0-26.375 7.718-58.158 20.472-84.31 19.754-40.504 52.135-72.772 92.674-92.35C146.776 15.642 178.918 8 205.348 8h6.136l18.258 18.329C246.246 42.897 248 44.984 248 48.058c0 3.114-2.212 5.611-26.271 29.671C197.665 101.792 195.172 104 192.056 104c-3.036 0-4.939-1.525-17.75-14.227l-14.349-14.227-42.191 42.191-42.191 42.191 14.212 14.426C102.354 187.108 104 189.166 104 192.118c0 3.035-2.398 5.738-26.271 29.611C53.524 245.934 51.187 248 48.009 248c-3.14 0-5.089-1.64-21.729-18.28m104.32 15.97c-3.273-3.272-3.391-7.545-.3-10.88 2.006-2.164 3.448-2.564 11.263-3.118 17.004-1.207 34.718-7.086 47.667-15.819 24.583-16.58 40.208-43.883 42.429-74.14.53-7.223 1.048-9.204 2.944-11.25 5.387-5.813 13.397-1.275 13.397 7.591 0 14.587-4.691 32.793-12.481 48.442-17.612 35.379-52.766 58.576-92.669 61.151-9.44.609-9.708.566-12.25-1.977m-64.117-35.673l17.962-17.983-14.223-14.344C57.54 164.898 56 162.978 56 159.953c0-3.145 3.673-7.067 50.252-53.673C153.006 59.5 156.742 56 159.924 56c3.062 0 4.928 1.494 17.769 14.226l14.348 14.226 18.225-18.225 18.225-18.225L216.35 35.86l-12.141-12.141-12.354 1.17c-44.675 4.232-83.589 22.745-115.066 54.74-30.832 31.341-48.725 70.911-52.331 115.728l-.712 8.858 11.861 11.892C42.131 222.648 47.705 228 47.995 228c.289 0 8.609-8.092 18.488-17.983m64.112-12.331c-5.107-5.107-1.551-13.686 5.674-13.686 12.548 0 23.657-4.822 33.283-14.448C179.07 160.033 184 148.96 184 137.097c0-8.045 8.375-12.032 13.548-6.451 1.873 2.021 2.448 3.734 2.435 7.25-.056 14.625-7.294 31.422-18.351 42.582-11.708 11.818-24.769 17.969-40.787 19.211-7.285.564-7.779.467-10.25-2.003"/><glyph glyph-name="zoom-2" unicode="" horiz-adv-x="256" d="M104.5 238.891C78.868 235.194 52.591 219.338 36.735 198 5.902 156.505 10.16 99.033 46.762 62.675 74.779 34.843 114.806 25.136 152 37.152c8.577 2.771 22.137 9.765 29.546 15.239l5.954 4.399 28.54-28.395C241.713 2.852 244.907 0 247.838 0 252.033 0 256 4.062 256 8.356c0 2.679-3.582 6.658-28.452 31.604L199.096 68.5l4.524 6c6.522 8.649 14.014 24.448 17.072 36 2.319 8.76 2.647 11.922 2.647 25.5 0 13.634-.321 16.704-2.67 25.5-4.934 18.474-12.975 32.613-26.635 46.837-23.148 24.102-56.158 35.367-89.534 30.554m38.921-18.391c31.636-9.186 53.985-32.373 62.169-64.5 2.511-9.858 2.604-29.498.188-39.508-7.909-32.766-30.845-56.136-64.462-65.681-11.174-3.173-31.458-3.173-42.632 0C76.116 57.219 59.049 69.1 47.519 86.429 37.814 101.014 33.297 114.55 32.309 132c-2.483 43.888 30.283 84.04 74.227 90.957 10.087 1.588 26.785.476 36.885-2.457"/><glyph glyph-name="edit-75" unicode="" horiz-adv-x="256" d="M138.766 190.25L73.001 124.5 64.5 94.776C59.825 78.428 56 64.12 56 62.981 56 60.204 60.347 56 63.219 56c1.27 0 15.546 3.787 31.725 8.416l29.416 8.417 65.82 65.864c61.608 61.649 65.82 66.085 65.82 69.309 0 3.156-1.864 5.308-22.275 25.719C213.277 254.173 211.167 256 207.991 256c-3.244 0-7.555-4.094-69.225-65.75m83.739 31.745l13.978-14.005-60.387-60.394-60.388-60.394-19.539-5.582c-10.747-3.071-19.702-5.42-19.9-5.222-.199.198 2.137 9.077 5.19 19.731L87.01 115.5l60.242 60.25C180.385 208.888 207.726 236 208.01 236c.284 0 6.807-6.302 14.495-14.005m-206.497.689c-5.056-1.61-13.57-10.283-14.906-15.184-1.636-5.999-1.529-185.324.114-190.884 1.623-5.493 9.907-13.777 15.4-15.4 5.93-1.752 184.838-1.752 190.768 0 5.493 1.623 13.777 9.907 15.4 15.4.872 2.953 1.216 16.317 1.216 47.295v43.18l-2.455 2.454c-3.247 3.248-7.843 3.248-11.09 0L208 107.091V21.292l-2.452-2.646L203.095 16H20.905l-2.453 2.646L16 21.292v181.799l2.455 2.454L20.909 208h86.186l2.453 2.646c3.187 3.439 3.186 7.711-.003 10.899L107.091 224l-43.796-.102c-29.103-.068-44.967-.475-47.287-1.214"/><glyph glyph-name="calendar-57" unicode="" horiz-adv-x="256" d="M66.455 253.545c-2.365-2.364-2.455-2.951-2.455-16V224H50.366c-7.884 0-15.37-.518-17.75-1.229-5.614-1.676-14.079-10.009-15.514-15.271-1.636-5.999-1.529-185.324.114-190.884 1.623-5.493 9.907-13.777 15.4-15.4 5.938-1.754 200.83-1.754 206.768 0 5.493 1.623 13.777 9.907 15.4 15.4 1.643 5.56 1.75 184.885.114 190.884-1.435 5.262-9.9 13.595-15.514 15.271-2.38.711-9.866 1.229-17.75 1.229H208v13.545c0 13.049-.09 13.636-2.455 16-3.247 3.248-7.843 3.248-11.09 0-2.365-2.364-2.455-2.951-2.455-16V224h-48v13.545c0 13.049-.09 13.636-2.455 16-3.247 3.248-7.843 3.248-11.09 0-2.365-2.364-2.455-2.951-2.455-16V224H80v13.545c0 13.049-.09 13.636-2.455 16C75.998 255.093 73.948 256 72 256s-3.998-.907-5.545-2.455m171.093-48.191c2.348-2.534 2.452-3.211 2.452-16V176H32v13.545c0 13.049.09 13.636 2.455 16L36.909 208h198.186l2.453-2.646M240 90.646V21.292l-2.452-2.646L235.095 16H36.905l-2.453 2.646L32 21.292V160h208V90.646"/><glyph glyph-name="car-front" unicode="" horiz-adv-x="256" d="M45.885 254.62c-5.529-1.976-9.617-5.306-12.454-10.147-2.3-3.926-3.344-9.733-9.757-54.294l-7.182-49.898-6.231-6.661C-.364 122.262.54 128.621.219 62.929L-.062 5.358l2.483-2.679L4.905 0h70.19l2.453 2.646C79.896 5.18 80 5.857 80 18.646V32h96V18.646c0-12.789.104-13.466 2.452-16L180.905 0h70.19l2.484 2.679 2.483 2.679-.281 57.571c-.321 65.694.583 59.336-10.046 70.691l-6.235 6.66-7.165 49.878c-7.803 54.312-8.062 55.34-15.275 60.65-7.207 5.305-5.311 5.195-89.436 5.148-61.226-.034-78.906-.323-81.739-1.336m160.158-15.643c1.051-.563 2.34-1.823 2.863-2.802.524-.978 3.692-21.105 7.041-44.727 3.348-23.621 6.314-43.961 6.59-45.198l.501-2.25H32.962l.501 2.25c.276 1.237 3.242 21.577 6.59 45.198 3.349 23.622 6.513 43.74 7.03 44.708.518.967 1.724 2.214 2.679 2.771 2.41 1.404 153.661 1.452 156.281.05m28.305-116.903l5.652-5.926V48H16v68.148l5.652 5.926L27.304 128h201.392l5.652-5.926M41.45 94.593c-10.089-4.394-12.472-17.806-4.568-25.711 11.235-11.235 29.646-1.172 26.69 14.589-1.752 9.336-13.11 15.048-22.122 11.122m160 0c-10.089-4.394-12.472-17.806-4.568-25.711 11.235-11.235 29.646-1.172 26.69 14.589-1.752 9.336-13.11 15.048-22.122 11.122M64 24v-8H16v16h48v-8m176 0v-8h-48v16h48v-8"/><glyph glyph-name="seatbelt" unicode="" horiz-adv-x="256" d="M117 254.638c-3.025-.658-7.75-2.277-10.5-3.599-6.839-3.288-18.502-15.125-21.715-22.039-8.47-18.227-5.47-38.585 7.797-52.915l5.212-5.63-7.226-3.819c-16.52-8.732-30.513-24.648-37.159-42.267-4.249-11.265-5.407-19.838-5.43-40.207L47.958 65.5l-14.843-9.803C18.664 46.152 16 43.539 16 38.907c0-1.099 1.105-3.102 2.455-4.452 2.364-2.365 2.951-2.455 16-2.455H48V18.646c0-12.789.104-13.466 2.452-16 3.292-3.552 7.804-3.552 11.096 0C63.896 5.18 64 5.857 64 18.646V32h128V18.646c0-12.789.104-13.466 2.452-16 3.292-3.552 7.804-3.552 11.096 0 2.348 2.534 2.452 3.211 2.452 16V32h13.548c13.366 0 13.58.036 16 2.646 3.187 3.439 3.186 7.711-.003 10.899-2.364 2.365-2.951 2.455-16 2.455H208v27.412c0 29.693-.771 36.662-5.421 48.99-2.345 6.217-3.947 9.343-8.347 16.292-1.341 2.118-.887 2.529 13.112 11.855 15.172 10.109 17.412 12.59 16.096 17.832-.688 2.745-4.855 5.619-8.145 5.619-.993 0-8.891-4.73-17.551-10.51l-15.747-10.511-5.248 4.273c-2.887 2.351-8.246 5.827-11.909 7.725l-6.659 3.451 5.225 5.644c13.28 14.344 16.282 34.694 7.809 52.928-3.406 7.329-14.878 18.746-22.334 22.227-9.829 4.589-20.971 5.781-31.881 3.411m24.375-17.577c5.991-2.901 12.793-9.72 15.751-15.791 3.461-7.102 3.34-18.709-.274-26.418-3.228-6.886-9.474-13.327-15.703-16.193-6.568-3.023-19.73-3.023-26.298 0-13.133 6.043-21.013 22.033-17.934 36.391 2.211 10.309 11.226 20.244 21.379 23.562 6.108 1.996 17.305 1.244 23.079-1.551m6.125-80.074c7.12-2.22 11.363-4.364 17.33-8.759l3.331-2.452-51.576-34.388C88.218 92.475 64.782 77 64.504 77c-1.162 0-.366 25.992.995 32.5 3.242 15.491 13.828 30.91 27.433 39.955 7.358 4.892 12.085 6.889 21.568 9.112 8.392 1.968 24.017 1.22 33-1.58m38.118-33.516c5.552-11.498 6.345-17.51 6.365-48.221L192 48H64v8.995l57.75 38.509c53.022 35.357 57.862 38.366 59.113 36.753.749-.966 2.889-4.92 4.755-8.786"/><glyph glyph-name="home-51-2" unicode="" horiz-adv-x="256" d="M63.376 206.502c-41.502-33.2-62.154-50.336-62.723-52.043-.467-1.4-.573-3.642-.236-4.984.712-2.837 5.871-5.844 8.999-5.246 1.187.227 28.124 21.193 59.86 46.592C101.012 216.219 127.438 237 128 237c.562 0 26.988-20.781 58.724-46.179 31.736-25.399 58.673-46.365 59.86-46.592 3.216-.615 8.288 2.411 9.035 5.39.373 1.486.061 3.783-.735 5.41-.844 1.723-25.344 21.984-62.759 51.899C144.615 244.915 130.13 256 128.001 256c-2.129 0-16.71-11.168-64.625-49.498m37.124-31.71c-4.335-2.486-4.435-3.175-4.468-30.906L96 117.273l2.636-2.637 2.637-2.636h53.454l2.637 2.636 2.636 2.637-.032 26.613c-.033 27.931-.125 28.539-4.652 30.951-3.017 1.607-52.006 1.567-54.816-.045M144 144v-16h-32v32h32v-16m-109.545-2.455L32 139.091V5.292l2.452-2.646L36.905 0h70.19l2.453 2.646L112 5.292V64h32V5.292l2.452-2.646L148.905 0h70.19l2.453 2.646L224 5.292v133.799l-2.455 2.454c-3.247 3.248-7.843 3.248-11.09 0L208 139.091V16h-48v59.091l-2.455 2.454L155.091 80h-54.182l-2.454-2.455L96 75.091V16H48v123.091l-2.455 2.454C43.998 143.093 41.948 144 40 144s-3.998-.907-5.545-2.455"/><glyph glyph-name="home-2" unicode="" horiz-adv-x="256" d="M64.055 199.037c-33.794-22.529-62.016-41.991-62.714-43.249-2.854-5.142-.476-10.297 5.246-11.37 3.367-.632 6.24 1.145 62.471 38.621L128 222.322l58.942-39.283c56.231-37.476 59.104-39.253 62.471-38.621 5.722 1.073 8.1 6.228 5.246 11.37-1.835 3.307-123.521 84.211-126.659 84.211-1.626 0-23.982-14.321-63.945-40.962m56.679-40.067c-9.33-2.343-17.639-9.08-21.922-17.777-1.866-3.789-2.312-6.331-2.312-13.193 0-10.121 2.192-15.534 9.079-22.421 11.173-11.173 28.154-12.64 40.842-3.528 20.621 14.809 16.91 45.608-6.677 55.419-4.775 1.986-14.135 2.725-19.01 1.5m13.921-16.611c10.041-4.764 12.266-17.153 4.539-25.275-4.119-4.331-8.764-5.763-14.935-4.605-4.767.894-10.908 7.135-11.824 12.014-2.479 13.214 10.326 23.51 22.22 17.866m-29.482-64.341c-19.178-5.148-35.61-22.431-39.706-41.761-2.157-10.177-1.916-14.48.985-17.611L68.905 16h118.19l2.453 2.646c2.891 3.12 3.142 7.436 1.014 17.476C186.679 54.44 172.159 70.715 154 77.101c-5.64 1.984-8.816 2.326-24 2.585-14.892.255-18.592.006-24.827-1.668m38.833-15.019c7.62-1.445 13.753-4.767 19.766-10.706 4.776-4.717 11.225-15.655 11.227-19.043C175 32.268 164.934 32 128 32c-36.934 0-47 .268-46.999 1.25 0 .687 1.34 4.082 2.978 7.543 5.184 10.959 16.282 19.987 27.216 22.14 6.136 1.208 26.571 1.249 32.811.066"/><glyph glyph-name="hotel" unicode="" horiz-adv-x="256" d="M50.455 253.545L48 251.091V128H26.455c-21.543 0-21.546 0-24-2.455L0 123.091V5.292l2.452-2.646L4.905 0h246.19l2.453 2.646L256 5.292v117.799l-2.455 2.454c-2.454 2.455-2.457 2.455-24 2.455H208v123.091l-2.455 2.454-2.454 2.455H52.909l-2.454-2.455M192 128V16h-32l-.032 21.25c-.033 22.251-.209 23.22-4.652 25.587-3.045 1.621-51.587 1.621-54.632 0-4.443-2.367-4.619-3.336-4.652-25.587L96 16H64v224h128V128m-93.545 77.545c-3.189-3.188-3.19-7.46-.003-10.899l2.453-2.646h54.19l2.453 2.646c3.187 3.439 3.186 7.711-.003 10.899L155.091 208h-54.182l-2.454-2.455m0-48c-3.189-3.188-3.19-7.46-.003-10.899l2.453-2.646h54.19l2.453 2.646c3.187 3.439 3.186 7.711-.003 10.899L155.091 160h-54.182l-2.454-2.455M48 64V16H16v96h32V64m50.455 45.545c-3.189-3.188-3.19-7.46-.003-10.899L100.905 96h54.19l2.453 2.646c3.187 3.439 3.186 7.711-.003 10.899L155.091 112h-54.182l-2.454-2.455M240 64V16h-32v96h32V64m-96-32V16h-32v32h32V32"/><glyph glyph-name="book" unicode="" horiz-adv-x="256" d="M50.5 238.493c-22.374-3.217-39.908-12.772-47.027-25.626L.5 207.5l-.27-93.082-.27-93.083 2.472-2.667c3.312-3.574 7.816-3.583 11.116-.022 1.348 1.455 2.454 3.818 2.456 5.25.011 8.154 12.125 17.038 29.597 21.706 9.802 2.618 35.001 2.611 44.899-.013 16.204-4.297 27.81-12.424 29.08-20.363 1.372-8.578 8.851-12.101 13.968-6.58 1.348 1.455 2.454 3.818 2.456 5.25.011 8.154 12.125 17.038 29.597 21.706 9.802 2.618 35.001 2.611 44.899-.013 16.204-4.297 27.81-12.424 29.08-20.363 1.374-8.596 8.851-12.101 13.988-6.558l2.472 2.667-.27 93.083-.27 93.082-2.973 5.367c-10.303 18.602-42.712 29.768-76.277 26.281-18.299-1.901-32.87-7.037-43.254-15.246L128 219.953l-4.996 3.949c-16.381 12.949-44.531 18.614-72.504 14.591m41-17.244c15.867-4.35 26.823-12.162 28.08-20.023 1.372-8.578 8.851-12.101 13.968-6.58 1.348 1.455 2.454 3.818 2.456 5.25.011 8.154 12.125 17.038 29.597 21.706 9.802 2.618 35.001 2.611 44.899-.013 13.911-3.689 25.409-10.734 28.124-17.232 1.126-2.695 1.376-16.903 1.376-78.325 0-41.268-.14-75.032-.31-75.032-.171 0-3.433 1.53-7.25 3.4-9.913 4.856-19.23 7.349-32.69 8.748-25.575 2.657-51.635-3.295-66.754-15.246L128 43.953l-4.996 3.949C107.885 59.853 81.825 65.805 56.25 63.148c-13.46-1.399-22.777-3.892-32.69-8.748-3.817-1.87-7.079-3.4-7.25-3.4-.17 0-.308 34.087-.306 75.75.003 73.513.061 75.845 1.967 78.97 4.83 7.922 18.297 14.357 37.029 17.694 6.141 1.094 29.71-.304 36.5-2.165"/><glyph glyph-name="security" unicode="" horiz-adv-x="256" d="M128.207 243.66C102.085 219.573 67.805 203.407 29 196.874c-13.445-2.263-14.607-5.114-11.449-28.09 5.264-38.304 17.395-70.421 37.41-99.045 9.691-13.859 29.943-33.624 44.07-43.009C111.023 18.763 132.267 8 136 8c3.733 0 24.977 10.763 36.969 18.73 14.127 9.385 34.379 29.15 44.07 43.009 20.1 28.745 32.495 61.719 37.424 99.562 2.254 17.305 2.1 20.294-1.213 23.58-2.262 2.244-4.525 3.038-12.75 4.473-37.439 6.531-71 22.602-96.707 46.306-3.433 3.165-5.542 4.34-7.793 4.34-2.251 0-4.36-1.175-7.793-4.34M128 175v-47H43.085l-1.98 6.75c-4.251 14.49-5.51 20.691-8.519 41.954l-.595 4.204 3.755.649c29.997 5.185 69.011 21.805 88.232 37.587 1.913 1.571 3.6 2.856 3.75 2.856.15 0 .272-21.15.272-47m29.5 37.641c14.92-9.784 27.628-15.969 45.621-22.206 9.296-3.222 25.435-7.548 33.096-8.871 3.366-.582 3.677-.898 3.289-3.353-.235-1.491-.931-6.536-1.546-11.211-1.232-9.362-3.96-21.854-7.043-32.25l-2.002-6.75H144v94.167l2.75-2.141c1.512-1.177 6.35-4.5 10.75-7.385M128 70.5c0-22.825-.338-41.494-.75-41.486-1.67.031-16.251 8.525-23.738 13.828-10.807 7.654-27.594 24.633-35.513 35.92-6.509 9.276-17.958 29.639-17.985 31.988-.011.979 8.445 1.25 38.986 1.25h39V70.5m94 40.336c0-1.994-10.891-21.851-16.183-29.507-11.552-16.71-26.184-31.158-42.317-41.785C156.245 34.765 145.874 29 144.533 29c-.293 0-.533 18.675-.533 41.5V112h39c28.989 0 39-.299 39-1.164"/><glyph glyph-name="alert" unicode="" horiz-adv-x="256" d="M130.848 237.75C127.485 233.967 16 26.106 16 23.618c0-1.279 1.104-3.517 2.452-4.972L20.905 16h229.822l2.637 2.636c1.45 1.45 2.636 3.688 2.636 4.973 0 2.705-111.726 210.694-115.016 214.111-2.871 2.983-7.498 2.997-10.136.03m54.481-114.143C212.098 73.891 234 32.941 234 32.607c0-.334-44.1-.607-98-.607s-98 .273-98 .607C38 33.801 135.355 214 136 214c.362 0 22.56-40.677 49.329-90.393m-54.874 41.938L128 163.091v-61.799l2.452-2.646C132.086 96.883 133.937 96 136 96s3.914.883 5.548 2.646l2.452 2.646v61.799l-2.455 2.454C139.998 167.093 137.948 168 136 168s-3.998-.907-5.545-2.455m-1.005-86.952c-10.089-4.394-12.472-17.806-4.568-25.711 11.235-11.235 29.646-1.172 26.69 14.589-1.752 9.336-13.11 15.048-22.122 11.122"/><glyph glyph-name="dashboard-29" unicode="" horiz-adv-x="256" d="M108.5 254.445C52.322 244.952 9.966 202.042 1.455 146c-6.043-39.789 8.218-81.082 37.9-109.738 49.946-48.22 127.344-48.22 177.29 0 52.378 50.567 52.246 132.652-.294 183.896-27.832 27.146-70.269 40.637-107.851 34.287m34.066-15.517c37.461-5.211 69.05-27.905 85.504-61.428 10.131-20.64 13.848-42.568 10.858-64.066-5.172-37.178-27.981-68.928-61.645-85.807-30.327-15.206-67.832-15.359-97.783-.399-33.821 16.893-55.482 46.055-62.009 83.482-4.633 26.57 2.106 56.332 18.256 80.618C42.214 201.052 55.72 214.37 66 221.16c22.458 14.831 50.646 21.373 76.566 17.768m-76.111-49.383c-1.579-1.578-2.455-3.591-2.455-5.639 0-2.787 2.235-5.441 17.934-21.295L99.869 144.5l-2.042-6c-4.007-11.779-1.117-24.052 7.752-32.921 11.173-11.173 28.154-12.64 40.842-3.528 25.06 17.996 12.873 57.009-17.921 57.368-4.613.053-8.652-.556-11.846-1.788l-4.846-1.87-18.215 18.12C77.505 189.883 74.999 192 72.143 192c-2.1 0-4.094-.86-5.688-2.455m68.2-47.186c10.041-4.764 12.266-17.153 4.539-25.275-4.119-4.331-8.764-5.763-14.935-4.605-4.767.894-10.908 7.135-11.824 12.014-2.479 13.214 10.326 23.51 22.22 17.866"/><glyph glyph-name="single-copy-04" unicode="" horiz-adv-x="256" d="M66.455 253.545c-3.189-3.188-3.19-7.46-.003-10.899L68.905 240H240V37.292l2.452-2.646c3.292-3.552 7.804-3.552 11.096 0L256 37.292v213.799l-2.455 2.454-2.454 2.455H68.909l-2.454-2.455m-32-48L32 203.091V5.292l2.452-2.646L36.905 0h166.19l2.453 2.646L208 5.292v197.799l-2.455 2.454-2.454 2.455H36.909l-2.454-2.455M192 104V16H48v176h144v-88M82.455 157.545c-3.189-3.188-3.19-7.46-.003-10.899L84.905 144h70.19l2.453 2.646c3.187 3.439 3.186 7.711-.003 10.899L155.091 160H84.909l-2.454-2.455m0-48c-3.189-3.188-3.19-7.46-.003-10.899L84.905 96h70.19l2.453 2.646c3.187 3.439 3.186 7.711-.003 10.899L155.091 112H84.909l-2.454-2.455m0-48c-3.189-3.188-3.19-7.46-.003-10.899L84.905 48h70.19l2.453 2.646c3.187 3.439 3.186 7.711-.003 10.899L155.091 64H84.909l-2.454-2.455"/><glyph glyph-name="cards" unicode="" horiz-adv-x="256" d="M2.455 253.545L0 251.091V69.292l2.452-2.646L4.905 64h150.19l2.453 2.646L160 69.292v181.799l-2.455 2.454-2.454 2.455H4.909l-2.454-2.455M144 160V80H16v160h128v-80m42.455 35.545c-3.062-3.062-3.131-6.647-.193-10.063 2.132-2.479 3.687-2.84 27.25-6.328l24.988-3.698-.2-2.478c-.568-7.039-22.579-154.57-23.141-155.099-.362-.342-31.22 3.894-68.572 9.414-61.664 9.111-68.15 9.902-70.487 8.59-4.881-2.74-5.361-10.38-.834-13.297C78.029 20.805 221.159-.428 224.591.433c1.311.33 3.09 1.677 3.953 2.994 1.877 2.865 27.914 177.614 27.004 181.239-.319 1.27-1.585 2.953-2.814 3.741-2.115 1.357-54.337 9.593-60.822 9.593-1.855 0-3.941-.938-5.457-2.455"/><glyph glyph-name="settings-gear-63-2" unicode="" horiz-adv-x="256" d="M107.356 254.228c-2.686-2.166-2.939-3.04-5.871-20.317-1.322-7.79-2.535-14.232-2.694-14.316-.16-.084-3.609-1.589-7.663-3.346l-7.373-3.193-11.627 8.326C58.43 231.189 57 232 53.393 232c-2.181 0-5.452-2.713-16.066-13.327C25.621 206.966 24 204.945 24 202.053c0-2.548 2.095-6.245 9.25-16.326 5.088-7.168 9.12-13.527 8.96-14.13-.333-1.261-5.456-13.904-5.866-14.478-.15-.21-7.596-1.642-16.546-3.184-13.507-2.326-16.572-3.172-18.035-4.979C.221 147.052 0 144.461 0 128.323c0-11.096.423-19.245 1.061-20.437 1.473-2.753 3.906-3.501 20.584-6.327 8.033-1.361 14.687-2.606 14.788-2.767.393-.627 5.504-13.355 5.777-14.389.16-.603-3.873-6.962-8.96-14.13C26.095 60.192 24 56.495 24 53.947c0-2.892 1.621-4.913 13.327-16.62C49.034 25.621 51.055 24 53.947 24c2.548 0 6.245 2.095 16.326 9.25 7.168 5.087 13.527 9.12 14.13 8.96 1.034-.273 13.762-5.384 14.389-5.777.161-.101 1.406-6.755 2.767-14.788 2.826-16.678 3.574-19.111 6.327-20.584C109.074.425 117.132 0 128 0s18.926.425 20.114 1.061c2.753 1.473 3.501 3.906 6.327 20.584 1.361 8.033 2.606 14.687 2.767 14.788.627.393 13.355 5.504 14.389 5.777.603.16 6.962-3.872 14.13-8.96 10.081-7.155 13.778-9.25 16.326-9.25 2.892 0 4.913 1.621 16.62 13.327C230.005 48.659 232 51.116 232 53.734c0 3.019-3.444 8.704-14.413 23.79l-4.38 6.024 3.081 7.476c1.695 4.112 3.167 7.607 3.272 7.768.105.161 6.762 1.406 14.795 2.767 16.678 2.826 19.111 3.574 20.584 6.327 1.342 2.507 1.429 37.559.099 40.043-1.399 2.615-5.041 3.773-19.038 6.055-6.875 1.121-13.4 2.243-14.5 2.493-1.397.318-2.868 2.65-4.881 7.739-1.584 4.006-2.87 7.656-2.857 8.11.013.455 4.122 6.588 9.131 13.63 7.04 9.898 9.107 13.551 9.107 16.097 0 2.892-1.621 4.913-13.327 16.62C208.059 229.287 204.788 232 202.607 232c-3.607 0-5.037-.811-18.735-10.618l-11.627-8.326-7.373 3.193c-4.054 1.757-7.501 3.26-7.658 3.341-.157.082-1.176 5.495-2.265 12.029-3.052 18.324-3.836 21.077-6.499 22.822-1.94 1.271-5.761 1.555-20.665 1.537-15.809-.019-18.575-.256-20.429-1.75m30.114-16.478c.279-1.238 1.439-7.875 2.578-14.75 1.138-6.875 2.664-13.413 3.389-14.529.733-1.127 3.929-2.848 7.191-3.872 3.23-1.014 8.898-3.363 12.597-5.221s8.023-3.378 9.61-3.378c2.009 0 6.545 2.582 14.935 8.5 6.627 4.675 12.414 8.5 12.861 8.5 1.1 0 12.369-11.214 12.369-12.309 0-.48-3.825-6.294-8.5-12.921-5.918-8.39-8.5-12.926-8.5-14.935 0-1.587 1.52-5.911 3.378-9.61s4.207-9.367 5.221-12.597c1.024-3.262 2.745-6.458 3.872-7.191 1.116-.725 7.654-2.251 14.529-3.389 6.875-1.139 13.529-2.303 14.787-2.588 2.206-.498 2.277-.843 2-9.691l-.287-9.175-15.253-2.586c-9.105-1.544-15.809-3.175-16.632-4.047-.759-.804-2.17-3.936-3.137-6.961-.967-3.025-3.27-8.526-5.118-12.225-1.848-3.699-3.36-8.023-3.36-9.61 0-2.009 2.582-6.545 8.5-14.935 4.675-6.627 8.5-12.415 8.5-12.863 0-.447-2.748-3.586-6.107-6.975l-6.107-6.161-12.503 8.884C179.434 57.403 174.928 60 172.865 60c-1.603 0-5.941-1.52-9.64-3.378-3.699-1.858-9.367-4.207-12.597-5.221-3.262-1.024-6.458-2.745-7.191-3.872-.725-1.116-2.251-7.654-3.389-14.529-1.139-6.875-2.299-13.513-2.578-14.75-.481-2.128-.993-2.25-9.47-2.25s-8.989.122-9.47 2.25c-.279 1.238-1.439 7.875-2.578 14.75-1.138 6.875-2.664 13.413-3.389 14.529-.733 1.127-3.929 2.848-7.191 3.872-3.23 1.014-8.898 3.363-12.597 5.221S84.738 60 83.135 60c-2.063 0-6.569-2.597-15.418-8.885l-12.503-8.884-6.107 6.161C45.748 51.781 43 54.92 43 55.367c0 .448 3.825 6.236 8.5 12.863 5.918 8.39 8.5 12.926 8.5 14.935 0 1.587-1.512 5.911-3.36 9.61-1.848 3.699-4.151 9.2-5.118 12.225-.967 3.025-2.378 6.157-3.137 6.961-.823.872-7.527 2.503-16.632 4.047L16.5 118.594l-.287 9.175c-.277 8.848-.206 9.193 2 9.691 1.258.285 7.912 1.449 14.787 2.588 6.875 1.138 13.413 2.664 14.529 3.389 1.127.733 2.848 3.929 3.872 7.191 1.014 3.23 3.363 8.898 5.221 12.597S60 171.248 60 172.835c0 2.009-2.582 6.545-8.5 14.935-4.675 6.627-8.5 12.441-8.5 12.921C43 201.786 54.269 213 55.369 213c.447 0 6.234-3.825 12.861-8.5 8.39-5.918 12.926-8.5 14.935-8.5 1.587 0 5.911 1.52 9.61 3.378s9.367 4.207 12.597 5.221c3.262 1.024 6.458 2.745 7.191 3.872.725 1.116 2.251 7.654 3.389 14.529 1.139 6.875 2.299 13.512 2.578 14.75.481 2.128.993 2.25 9.47 2.25s8.989-.122 9.47-2.25M117 174.638c-8.793-1.911-15-5.503-22.58-13.07-7.578-7.566-11.39-14.261-13.305-23.367-3.492-16.601 1.021-31.42 13.333-43.781C104.273 84.557 114.876 80 128 80c13.124 0 23.727 4.557 33.552 14.42 12.312 12.361 16.825 27.18 13.333 43.781-1.917 9.118-5.725 15.8-13.305 23.351-12.509 12.459-27.375 16.823-44.58 13.086m24.375-17.577c5.991-2.901 12.793-9.72 15.751-15.791 3.461-7.102 3.34-18.709-.274-26.418-3.228-6.886-9.474-13.327-15.703-16.193-6.568-3.023-19.73-3.023-26.298 0-13.133 6.043-21.013 22.033-17.934 36.391 2.211 10.309 11.226 20.244 21.379 23.562 6.108 1.996 17.305 1.244 23.079-1.551"/><glyph glyph-name="support-16" unicode="" horiz-adv-x="256" d="M98.455 253.545C96.268 251.359 96 250.239 96 243.287v-7.805l-6.75-2.419c-29.741-10.66-55.222-36.356-66.254-66.813L20.732 160h-7.911c-7.067 0-8.174-.262-10.366-2.455L0 155.091v-53.799l2.452-2.646C4.709 96.211 5.541 96 12.872 96h7.967l1.706-5.25c2.559-7.876 9.987-21.833 15.483-29.093C51.44 43.94 69.784 30.228 89.75 22.996L96 20.732v-7.72c0-6.809.29-8.032 2.452-10.366L100.905 0h54.19l2.453 2.646C159.71 4.98 160 6.203 160 13.012v7.72l6.25 2.264c30.592 11.081 57.512 38.226 67.19 67.754l1.721 5.25h7.967c7.331 0 8.163.211 10.42 2.646l2.452 2.646v53.799l-2.455 2.454c-2.192 2.193-3.299 2.455-10.366 2.455h-7.911l-2.264 6.25c-11.012 30.403-36.566 56.172-66.254 66.813l-6.75 2.419v7.805c0 6.952-.268 8.072-2.455 10.258L155.091 256h-54.182l-2.454-2.455M144 215.063v-24.937l-3.75.687c-2.062.378-7.575.687-12.25.687s-10.187-.309-12.25-.687l-3.75-.687V240h32v-24.937m-48-14.347v-17.285l-2.947-1.741c-4.84-2.859-13.522-11.275-17.154-16.629l-3.399-5.009-17.25-.026c-11.1-.017-17.25.338-17.25.996 0 .562 1.852 4.725 4.116 9.25 9.65 19.289 23.95 33.643 43.036 43.197 4.978 2.492 9.456 4.531 9.95 4.531.496 0 .898-7.732.898-17.284m77.016 11.622c16.39-8.556 31.037-23.192 39.366-39.338 2.411-4.675 4.693-9.513 5.069-10.75l.684-2.25-17.318.026-17.317.026-3.399 5.009c-3.632 5.354-12.314 13.77-17.154 16.629L160 183.431v34.704l2.25-.676c1.238-.372 6.082-2.676 10.766-5.121m-35.496-37.426C158.893 170.961 176 150.106 176 128c0-25.841-22.159-48-48-48s-48 22.159-48 48c0 25.535 21.524 47.447 47.066 47.916 2.512.046 7.216-.406 10.454-1.004M65.187 140.25c-.378-2.063-.687-7.575-.687-12.25s.309-10.188.687-12.25l.687-3.75H16v32h49.874l-.687-3.75M240 128v-16h-49.874l.687 3.75c.378 2.062.687 7.575.687 12.25s-.309 10.187-.687 12.25l-.687 3.75H240v-16M74.31 93.053c2.859-4.84 11.275-13.522 16.629-17.154l5.009-3.399.026-17.317L96 37.865l-2.25.683c-5.289 1.605-18.711 9.32-25.216 14.494-8.588 6.83-15.463 14.326-21.127 23.033C43.396 82.24 38 93.168 38 95.124c0 .482 7.778.876 17.284.876h17.285l1.741-2.947M218 95.124c0-1.956-5.396-12.884-9.407-19.049-5.664-8.707-12.539-16.203-21.127-23.033-6.505-5.174-19.927-12.889-25.216-14.494l-2.25-.683v34.704l2.947 1.741c4.84 2.859 13.522 11.275 17.154 16.629l3.399 5.009 17.25.026c9.488.014 17.25-.368 17.25-.85M128 64.5c4.675 0 10.188.309 12.25.687l3.75.687V16h-32v49.874l3.75-.687c2.063-.378 7.575-.687 12.25-.687"/><glyph glyph-name="simple-add-2" unicode="" horiz-adv-x="256" d="M130.455 237.545L128 235.091V128H20.909l-2.454-2.455c-3.189-3.188-3.19-7.46-.003-10.899L20.905 112H128V5.292l2.452-2.646c3.292-3.552 7.804-3.552 11.096 0L144 5.292V112h107.095l2.453 2.646c3.187 3.439 3.186 7.711-.003 10.899L251.091 128H144v107.091l-2.455 2.454C139.998 239.093 137.948 240 136 240s-3.998-.907-5.545-2.455"/><glyph glyph-name="menu-34-2" unicode="" horiz-adv-x="256" d="M18.455 221.545c-3.189-3.188-3.19-7.46-.003-10.899L20.905 208h230.19l2.453 2.646c3.187 3.439 3.186 7.711-.003 10.899L251.091 224H20.909l-2.454-2.455m0-96c-3.189-3.188-3.19-7.46-.003-10.899L20.905 112h230.19l2.453 2.646c3.187 3.439 3.186 7.711-.003 10.899L251.091 128H20.909l-2.454-2.455m0-96c-3.189-3.188-3.19-7.46-.003-10.899L20.905 16h230.19l2.453 2.646c3.187 3.439 3.186 7.711-.003 10.899L251.091 32H20.909l-2.454-2.455"/><glyph glyph-name="tail-right-3" unicode="" horiz-adv-x="256" d="M162.455 205.545c-1.595-1.594-2.455-3.588-2.455-5.688 0-2.914 3.387-6.63 34.217-37.546L228.434 128H4.909l-2.454-2.455c-3.189-3.188-3.19-7.46-.003-10.899L4.905 112h223.556l-34.23-34.284C164.133 47.572 160 43.062 160 40.362c0-4.315 3.963-8.362 8.189-8.362 2.994 0 7.02 3.735 45.548 42.263C253.199 113.725 256 116.757 256 120c0 3.243-2.801 6.275-42.263 45.737C175.221 204.253 171.183 208 168.191 208c-2.151 0-4.127-.846-5.736-2.455"/><glyph glyph-name="time-3" unicode="" horiz-adv-x="256" d="M116.835 238.526c-24.007-3.932-47.599-16.191-65.384-33.977C14.862 167.96 5.787 113.878 28.456 67.5c14.705-30.086 39.938-51.64 72.492-61.924 40.644-12.839 84.935-2.506 117.218 27.347C241.525 54.524 255.993 87.83 255.992 120c-.001 48.23-29.766 92.271-75.042 111.036-18.605 7.711-44.38 10.722-64.115 7.49m33.714-15.596c22.566-3.139 43.417-13.862 59.485-30.593 13.66-14.224 21.701-28.363 26.635-46.837 2.349-8.796 2.67-11.866 2.67-25.5 0-13.578-.328-16.74-2.647-25.5C222.845 42.193 172.188 8.897 119.5 17.473 78.946 24.074 45.963 54.25 35.308 94.5c-2.319 8.76-2.647 11.922-2.647 25.5s.328 16.74 2.647 25.5c2.965 11.202 10.464 27.195 16.645 35.5 23.33 31.346 60.634 47.21 98.596 41.93m-20.094-33.385L128 187.091v-69.799l2.452-2.646 2.453-2.646h70.19l2.453 2.646c3.187 3.439 3.186 7.711-.003 10.899L203.091 128H144v59.091l-2.455 2.454C139.998 191.093 137.948 192 136 192s-3.998-.907-5.545-2.455"/><glyph glyph-name="upload" unicode="" horiz-adv-x="256" d="M106.271 229.729C83.272 206.729 80 203.074 80 200.375c0-4.303 3.959-8.375 8.141-8.375 2.86 0 5.367 2.119 21.548 18.215L128 228.429V85.292l2.452-2.646c3.292-3.552 7.804-3.552 11.096 0L144 85.292v143.137l18.311-18.214C178.492 194.119 180.999 192 183.859 192c4.182 0 8.141 4.072 8.141 8.375 0 2.699-3.272 6.354-26.271 29.354C141.497 253.961 139.19 256 136 256c-3.19 0-5.497-2.039-29.729-26.271m-70.934-71.206c-1.16-.812-2.395-2.617-2.745-4.011C31.954 151.969 16 10.093 16 6.961c0-.918 1.104-2.86 2.452-4.315L20.905 0h114.097c123.821 0 119.155-.206 120.54 5.312.668 2.662-15.179 146.602-16.532 150.161-.503 1.323-1.806 2.883-2.896 3.466-1.255.672-11.748 1.061-28.594 1.061h-26.611l-2.454-2.455c-3.189-3.188-3.19-7.46-.003-10.899l2.453-2.646h22.047c12.127 0 22.048-.371 22.048-.824 0-.453 3.15-29.107 7-63.676s7-62.998 7-63.176c0-.178-46.35-.324-103-.324s-103 .146-103 .324c0 .178 3.15 28.607 7 63.176s7 63.223 7 63.676c0 .453 9.921.824 22.048.824h22.047l2.453 2.646c3.187 3.439 3.186 7.711-.003 10.899L91.091 160H64.268c-22.036 0-27.199-.264-28.931-1.477"/><glyph glyph-name="logo" unicode="" horiz-adv-x="435.2" d="M0 40.422C0 159.488 96.512 256 215.578 256s215.577-96.512 215.577-215.578H361.55c0 80.615-65.357 145.959-145.971 145.959S69.632 121.037 69.632 40.422H0zm172.915 2.804a43.226 43.226 0 0 1 86.451 0 43.226 43.226 0 0 1-86.45 0"/><glyph glyph-name="logo-arch-only" unicode="" horiz-adv-x="512" d="M0 2.38C0 142.455 113.544 256 253.62 256S507.242 142.456 507.242 2.38h-81.89c0 94.84-76.89 171.715-171.73 171.715S81.92 97.22 81.92 2.38H0z"/><glyph glyph-name="move-right" unicode="" horiz-adv-x="256" d="M2.455 237.545L0 235.091V5.292l2.452-2.646c3.292-3.552 7.804-3.552 11.096 0L16 5.292v229.799l-2.455 2.454c-3.247 3.248-7.843 3.248-11.09 0m160-32c-1.595-1.594-2.455-3.588-2.455-5.688 0-2.914 3.387-6.63 34.217-37.546L228.434 128H68.909l-2.454-2.455c-3.189-3.188-3.19-7.46-.003-10.899L68.905 112h159.556l-34.23-34.284C164.133 47.572 160 43.062 160 40.362c0-4.315 3.963-8.362 8.189-8.362 2.994 0 7.02 3.735 45.548 42.263C253.199 113.725 256 116.757 256 120c0 3.243-2.801 6.275-42.263 45.737C175.221 204.253 171.183 208 168.191 208c-2.151 0-4.127-.846-5.736-2.455"/><glyph glyph-name="hit-left" unicode="" horiz-adv-x="256" d="M2.455 237.545L0 235.091V5.292l2.452-2.646c3.292-3.552 7.804-3.552 11.096 0L16 5.292v229.799l-2.455 2.454c-3.247 3.248-7.843 3.248-11.09 0m103.808-71.808C66.801 126.275 64 123.243 64 120c0-3.243 2.801-6.275 42.263-45.737C144.791 35.735 148.817 32 151.811 32c4.226 0 8.189 4.047 8.189 8.362 0 2.7-4.133 7.21-34.231 37.354L91.539 112h159.556l2.453 2.646c3.187 3.439 3.186 7.711-.003 10.899L251.091 128H91.566l34.217 34.311C156.613 193.227 160 196.943 160 199.857c0 4.356-3.81 8.143-8.191 8.143-2.992 0-7.03-3.747-45.546-42.263"/><glyph glyph-name="mobile" unicode="" horiz-adv-x="256" d="M48.358 255.061c-5.312-1.292-10.247-5.016-13.117-9.898L32.5 240.5v-225l2.777-4.723a21.33 21.33 0 0 1 7.5-7.5L47.5.5h161l4.723 2.777a21.33 21.33 0 0 1 7.5 7.5L223.5 15.5v225l-2.777 4.723a21.33 21.33 0 0 1-7.5 7.5L208.5 255.5l-78.5.162c-43.175.09-79.914-.181-81.642-.601M206 238c1.556-1.556 2-3.333 2-8v-6H48v6c0 4.667.444 6.444 2 8 1.965 1.965 3.333 2 78 2s76.035-.035 78-2m2-102V64H48v144h160v-72m0-102c0-12.667-.19-14.19-2-16-1.965-1.965-3.333-2-78-2s-76.035.035-78 2c-1.81 1.81-2 3.333-2 16v14h160V34"/><glyph glyph-name="money-12" unicode="" horiz-adv-x="256" d="M66.455 253.545c-3.189-3.188-3.19-7.46-.003-10.899L68.905 240h118.19l2.453 2.646c3.187 3.439 3.186 7.711-.003 10.899L187.091 256H68.909l-2.454-2.455m-32-32c-3.189-3.188-3.19-7.46-.003-10.899L36.905 208h182.19l2.453 2.646c3.187 3.439 3.186 7.711-.003 10.899L219.091 224H36.909l-2.454-2.455m-18.097-30.488c-5.306-1.284-10.245-5.009-13.117-9.894L.5 176.5v-161l2.777-4.723a21.33 21.33 0 0 1 7.5-7.5L15.5.5h225l4.723 2.777a21.33 21.33 0 0 1 7.5 7.5L255.5 15.5v161l-2.777 4.723a21.33 21.33 0 0 1-7.5 7.5L240.5 191.5l-110.5.158c-60.775.087-111.914-.183-113.642-.601M238 174c1.965-1.965 2-3.333 2-78s-.035-76.035-2-78c-1.975-1.975-3.333-2-110-2s-108.025.025-110 2c-1.965 1.965-2 3.333-2 78s.035 76.035 2 78c1.975 1.975 3.333 2 110 2s108.025-.025 110-2m-121-31.362c-8.793-1.911-15-5.503-22.58-13.07-7.578-7.566-11.39-14.261-13.305-23.367-3.492-16.601 1.021-31.42 13.333-43.781C104.273 52.557 114.876 48 128 48c13.124 0 23.727 4.557 33.552 14.42 12.312 12.361 16.825 27.18 13.333 43.781-1.917 9.118-5.725 15.8-13.305 23.351-12.509 12.459-27.375 16.823-44.58 13.086m24.375-17.577c5.991-2.901 12.793-9.72 15.751-15.791 3.461-7.102 3.34-18.709-.274-26.418-3.228-6.886-9.474-13.327-15.703-16.193-6.568-3.023-19.73-3.023-26.298 0-13.133 6.043-21.013 22.033-17.934 36.391 2.211 10.309 11.226 20.244 21.379 23.562 6.108 1.996 17.305 1.244 23.079-1.551"/><glyph glyph-name="event-confirm" unicode="" horiz-adv-x="256" d="M66.455 253.545c-2.365-2.364-2.455-2.951-2.455-16V224H42.366c-14.211 0-23.046-.422-25.75-1.229-5.614-1.676-14.079-10.009-15.514-15.271-1.636-5.999-1.529-185.324.114-190.884 1.623-5.493 9.907-13.777 15.4-15.4C19.569.344 32.933 0 63.914 0h43.181l2.453 2.646c3.187 3.439 3.186 7.711-.003 10.899L107.091 16H20.905l-2.453 2.646L16 21.292V160h224v-21.354c0-21.281.008-21.363 2.452-24 3.292-3.552 7.804-3.552 11.096 0l2.452 2.646-.006 43.104c-.003 27.997-.387 44.506-1.096 47.104-1.435 5.262-9.9 13.595-15.514 15.271-2.704.807-11.539 1.229-25.75 1.229H192v13.545c0 13.049-.09 13.636-2.455 16-3.247 3.248-7.843 3.248-11.09 0-2.365-2.364-2.455-2.951-2.455-16V224H80v13.545c0 13.049-.09 13.636-2.455 16C75.998 255.093 73.948 256 72 256s-3.998-.907-5.545-2.455m171.09-48c2.365-2.364 2.455-2.951 2.455-16V176H16v13.545c0 13.049.09 13.636 2.455 16L20.909 208h214.182l2.454-2.455M214.299 49.783l-30.276-30.216-14.339 14.216C157.205 46.156 154.928 48 152.127 48c-4.306 0-8.127-3.82-8.127-8.126 0-2.835 2.163-5.388 18.258-21.545C178.974 1.548 180.811 0 184.005 0c3.251 0 5.82 2.334 37.742 34.294C252.698 65.281 256 68.901 256 71.839c0 4.362-3.802 8.161-8.167 8.161-2.937 0-6.238-2.974-33.534-30.217"/><glyph glyph-name="mobile-button" unicode="" horiz-adv-x="256" d="M48.358 255.061c-5.312-1.292-10.247-5.016-13.117-9.898L32.5 240.5v-225l2.777-4.723a21.33 21.33 0 0 1 7.5-7.5L47.5.5h161l4.723 2.777a21.33 21.33 0 0 1 7.5 7.5L223.5 15.5v225l-2.777 4.723a21.33 21.33 0 0 1-7.5 7.5L208.5 255.5l-78.5.162c-43.175.09-79.914-.181-81.642-.601M206 238c1.975-1.975 2-3.333 2-110s-.025-108.025-2-110c-1.965-1.965-3.333-2-78-2s-76.035.035-78 2c-1.975 1.975-2 3.333-2 110s.025 108.025 2 110c1.965 1.965 3.333 2 78 2s76.035-.035 78-2M121.45 78.593c-10.089-4.394-12.472-17.806-4.568-25.711 11.235-11.235 29.646-1.172 26.69 14.589-1.752 9.336-13.11 15.048-22.122 11.122"/><glyph glyph-name="customer-support" unicode="" horiz-adv-x="256" d="M130.455 253.545L128 251.091V132.905l2.646-2.453c1.455-1.348 3.765-2.452 5.132-2.452 1.379 0 14.952 7.128 30.469 16l27.983 16h56.865l2.453 2.646 2.452 2.646v85.799l-2.455 2.454-2.454 2.455H132.909l-2.454-2.455M240 208v-32h-50.274l-22.113-12.625a41790.051 41790.051 0 0 1-22.863-13.059c-.412-.239-.75 19.843-.75 44.625V240h96v-32M63.932 175.043c-10.573-1.91-22.797-11.331-27.782-21.41-3.476-7.029-4.796-16.233-3.453-24.073 1.501-8.763 4.763-14.961 11.333-21.53 6.569-6.57 12.767-9.832 21.53-11.333 12.841-2.2 24.824 1.747 34.41 11.333 6.57 6.569 9.832 12.767 11.333 21.53 3.87 22.595-13.027 44.219-35.803 45.817-3.85.271-9.056.12-11.568-.334m18.69-17.866c8.371-4.304 12.812-11.647 12.807-21.177-.01-21.058-24.718-31.856-39.617-17.315-13.556 13.232-8.223 34.413 10.182 40.439 3.851 1.261 12.317.27 16.628-1.947M41.173 78.008C22.017 72.892 5.564 55.592 1.467 36.257.679 32.541.027 24.053.017 17.396.001 5.922.128 5.154 2.452 2.646L4.905 0h134.19l2.453 2.646c2.324 2.508 2.451 3.276 2.435 14.75-.01 6.657-.649 15.084-1.421 18.726-3.88 18.304-18.332 34.514-36.562 41.009-6.055 2.157-8.245 2.333-32 2.575-22.668.23-26.314.041-32.827-1.698m54.833-15.009c7.626-1.446 13.754-4.768 19.785-10.725 7.614-7.519 11.168-15.632 11.917-27.201l.588-9.073H15.704l.588 9.073c.466 7.193 1.213 10.409 3.606 15.524 5.2 11.111 16.263 20.163 27.297 22.336 6.14 1.209 42.524 1.258 48.811.066"/><glyph glyph-name="like-1" unicode="" horiz-adv-x="256" d="M224 160h-96v64c0 19.2-12.8 32-32 32L48 144H16c-9.6 0-16-6.4-16-16V16C0 6.4 6.4 0 16 0h176c22.4 0 43.2 16 46.4 38.4l16 83.2c4.8 19.2-9.6 38.4-30.4 38.4z"/><glyph glyph-name="like-no-1" unicode="" horiz-adv-x="256" d="M224 96h-96V32c0-19.2-12.8-32-32-32L48 112H16c-9.6 0-16 6.4-16 16v112c0 9.6 6.4 16 16 16h176c22.4 0 43.2-16 46.4-38.4l16-83.2c4.8-19.2-9.6-38.4-30.4-38.4z"/><glyph glyph-name="like-no-2" unicode="" horiz-adv-x="256" d="M2.455 253.545L0 251.091V117.292l2.452-2.646L4.905 112h54.19l2.453 2.646L64 117.292v133.799l-2.455 2.454L59.091 256H4.909l-2.454-2.455m80.029.03c-2.992-2.992-3.193-7.094-.52-10.575l1.92-2.5 60.888-.5 60.888-.5 4.893-3.026c8.79-5.436 9.443-7.217 19.999-54.495 5.196-23.275 9.438-44.38 9.426-46.899-.044-9.152-6.803-18.469-15.564-21.455-4.05-1.38-10.111-1.625-40.138-1.625h-35.367l-2.454-2.455-2.455-2.454-.01-35.796c-.009-35.482-.03-35.839-2.364-40.851-2.524-5.421-9.173-11.863-13.319-12.903-1.399-.351-2.653-.504-2.788-.34-.135.165-6.902 20.324-15.037 44.799-8.136 24.475-15.453 45.518-16.26 46.762-1.673 2.578-5.098 3.73-8.184 2.75-2.943-.934-6.038-4.497-6.038-6.95 0-1.134 7.469-24.467 16.597-51.852 14.055-42.166 16.977-50.04 19.079-51.417 2.161-1.416 3.446-1.477 9.913-.472 13.908 2.162 24.69 10.214 30.718 22.938L159.5 30.5l.323 32.75.322 32.75h30.218c32.233 0 37.956.652 45.58 5.194C247.861 108.296 256 122.082 256 135.168c0 9.002-18.295 90.633-22.074 98.491-3.779 7.858-12.438 16.042-20.518 19.392L207.5 255.5l-61.266.279-61.266.28-2.484-2.484M48 184v-56H16v112h32v-56"/><glyph glyph-name="like-2" unicode="" horiz-adv-x="256" d="M115.237 254.363c-1.715-1.413-6.249-13.829-18.75-51.352C87.419 175.793 80 152.59 80 151.45c0-1.14.912-3.052 2.028-4.249 4.374-4.695 10.619-3.665 13.305 2.194.783 1.708 7.84 22.455 15.682 46.105 7.842 23.65 14.369 43.134 14.504 43.299.897 1.093 6.279-1.711 10.408-5.423 7.934-7.134 8.073-7.975 8.073-48.908v-35.176l2.452-2.646 2.453-2.646h35.369c39.636 0 41.614-.276 48.263-6.733 4.716-4.581 7.413-10.505 7.441-16.347.031-6.389-18.209-87.493-20.833-92.637-2.405-4.713-7.353-8.879-12.893-10.856-2.967-1.059-16.051-1.348-62.547-1.383L84.909 16l-2.454-2.455c-3.189-3.188-3.19-7.46-.003-10.899L84.905 0h59.442c56.51 0 59.76.098 65.883 1.989 10.608 3.277 18.949 10.473 23.774 20.511 2.08 4.329 5.568 18.112 12.526 49.5 8.587 38.735 9.597 44.322 9.222 51-.944 16.804-12.986 31.048-30.102 35.605-3.816 1.016-12.966 1.374-35.327 1.383l-30.178.012-.322 32.75-.323 32.75-2.777 5.93c-3.677 7.852-8.906 14.079-15.135 18.026-6.389 4.048-10.175 5.344-17.936 6.139-5.132.526-6.528.321-8.415-1.232M2.455 141.545L0 139.091V5.292l2.452-2.646L4.905 0h54.19l2.453 2.646L64 5.292v133.799l-2.455 2.454L59.091 144H4.909l-2.454-2.455M48 72V16H16v112h32V72"/><glyph glyph-name="e-remove" unicode="" horiz-adv-x="256" d="M34.455 221.545c-1.598-1.597-2.455-3.587-2.455-5.7 0-2.941 3.955-7.207 42.229-45.55l42.228-42.306-42.228-42.272C36.901 48.351 32 43.088 32 40.369 32 36.055 35.961 32 40.175 32c2.975 0 7.091 3.816 45.548 42.234L128 116.468l42.277-42.234C208.734 35.816 212.85 32 215.825 32c4.214 0 8.175 4.055 8.175 8.369 0 2.719-4.901 7.982-42.229 45.348l-42.228 42.272 42.228 42.306C220.045 208.638 224 212.904 224 215.845c0 4.361-3.805 8.155-8.177 8.155-2.972 0-7.101-3.828-45.546-42.234L128 139.532l-42.277 42.234C47.278 220.172 43.149 224 40.177 224c-2.136 0-4.118-.85-5.722-2.455"/><glyph glyph-name="i-remove" unicode="" horiz-adv-x="256" d="M66.455 189.545c-1.589-1.588-2.455-3.589-2.455-5.671 0-2.87 2.82-6.049 26.216-29.554l26.217-26.337-26.217-26.285C67.364 78.786 64 75.02 64 72.353 64 68.064 67.969 64 72.159 64c2.921 0 5.945 2.684 29.548 26.225L128 116.45l26.293-26.225C177.896 66.684 180.92 64 183.841 64c4.19 0 8.159 4.064 8.159 8.353 0 2.667-3.364 6.433-26.216 29.345l-26.217 26.285 26.217 26.337C189.18 177.825 192 181.004 192 183.874c0 4.323-3.82 8.126-8.161 8.126-2.918 0-5.95-2.691-29.546-26.225L128 139.55l-26.293 26.225C78.111 189.309 75.079 192 72.161 192c-2.119 0-4.107-.855-5.706-2.455"/><glyph glyph-name="tail-up-2" unicode="" horiz-adv-x="256" d="M90.263 213.737C52.811 176.284 48 171.122 48 168.383c0-4.326 3.954-8.383 8.169-8.383 2.954 0 6.519 3.25 37.547 34.231L128 228.461V5.292l2.452-2.646c3.292-3.552 7.804-3.552 11.096 0L144 5.292v223.169l34.284-34.23C209.312 163.25 212.877 160 215.831 160c4.215 0 8.169 4.057 8.169 8.383 0 2.739-4.811 7.901-42.263 45.354C142.275 253.199 139.243 256 136 256c-3.243 0-6.275-2.801-45.737-42.263"/><glyph glyph-name="c-check" unicode="" horiz-adv-x="256" d="M108.5 254.445C52.322 244.952 9.966 202.042 1.455 146c-6.043-39.789 8.218-81.082 37.9-109.738 49.946-48.22 127.344-48.22 177.29 0 52.378 50.567 52.246 132.652-.294 183.896-27.832 27.146-70.269 40.637-107.851 34.287m30.547-20.498c16.343-1.677 34.219-8.151 48.863-17.696 7.269-4.738 23.661-21.162 28.45-28.505 7.951-12.192 13.999-27.352 16.673-41.79 1.729-9.337 1.457-28.94-.533-38.456-9.8-46.853-47.033-80.723-93.991-85.499C107.75 18.872 77.618 29.17 55.12 50.5c-21.881 20.744-33.295 47.087-33.361 77-.05 22.064 5.73 41.631 17.728 60.015 4.922 7.542 21.242 23.938 28.603 28.736 17.189 11.204 37.004 17.558 58.054 18.616 1.454.073 7.26-.341 12.903-.92m48.608-42.655c-1.015-.261-19.644-22.822-41.399-50.134-21.755-27.312-39.728-49.862-39.941-50.111-.214-.249-8.359 7.465-18.101 17.143-9.743 9.678-18.697 18.095-19.898 18.703-7.244 3.671-16.598-3.779-14.834-11.813.395-1.795 8.795-10.886 24.854-26.896 22.403-22.335 24.522-24.181 27.711-24.149 1.899.02 4.425.582 5.613 1.25 3.556 2.001 89.247 109.791 90.309 113.6 2.292 8.217-5.242 14.746-14.314 12.407"/></font>
</defs>
</svg>
