<svg width="162" height="40" xmlns="http://www.w3.org/2000/svg"><g fill="#F43543" fill-rule="evenodd"><path d="M66.775 0v21.665a5.075 5.075 0 0 1-5.07 5.08 5.076 5.076 0 0 1-5.071-5.08V18.42H50.53v3.246c0 6.181 5.002 11.192 11.173 11.192s11.174-5.01 11.174-11.192V0h-6.103z" fill-rule="nonzero"/><path d="M100.021 21.96h-17.1c.147 1.904.784 3.419 1.91 4.545 1.127 1.11 2.573 1.665 4.337 1.665 1.372 0 2.507-.317 3.405-.951.882-.635 1.887-1.809 3.014-3.522l4.655 2.522c-.72 1.19-1.479 2.21-2.279 3.058-.8.848-1.658 1.546-2.572 2.094a10.5 10.5 0 0 1-2.965 1.201c-1.061.254-2.213.38-3.454.38-3.56 0-6.419-1.11-8.575-3.33-2.156-2.237-3.234-5.203-3.234-8.899 0-3.664 1.046-6.63 3.136-8.899 2.107-2.236 4.9-3.355 8.379-3.355 3.511 0 6.288 1.087 8.33 3.26 2.025 2.157 3.038 5.147 3.038 8.97l-.025 1.261zm-5.66-4.378c-.767-2.855-2.62-4.283-5.56-4.283-.67 0-1.3.1-1.887.298a5.447 5.447 0 0 0-2.842 2.2 6.154 6.154 0 0 0-.784 1.785h11.074zM146.224 40h-5.987l6.384-12.02-10.357-18.868h6.172l7.046 13.324 6.574-13.324h6.006L146.223 40zm-28.798-25.24c-.76-.127-1.544-.19-2.351-.19-2.645 0-4.557 2.38-5.476 4.41v13.376h-5.641V9.478h5.641v2.88c1.394-2.238 3.338-3.356 5.808-3.356.824 0 1.505.111 2.043.333l-.024 5.425zm17.17 0c-.76-.127-1.543-.19-2.35-.19-2.646 0-4.558 2.38-5.476 4.41v13.376h-5.642V9.478h5.642v2.88c1.393-2.238 3.337-3.356 5.808-3.356.823 0 1.504.111 2.043.333l-.024 5.425zM0 22.368C0 11.672 8.672 3 19.368 3c10.697 0 19.369 8.672 19.369 19.368h-6.255c0-7.242-5.87-13.114-13.114-13.114-7.242 0-13.114 5.872-13.114 13.114H0zM19.419 26a3.884 3.884 0 1 1 0-7.768 3.884 3.884 0 0 1 0 7.768z"/></g></svg>